# File generated by ImageToStl.com - Free Image and 3D model conversion tools

o obj1
v -0 1.54999995 0
v 0.30239001 1.52021694 0
v -0.30239001 1.52021694 0
v -0 -1.54999995 0
v -0.30239001 -1.52021694 0
v 0.30239001 -1.52021694 0
v -0.59315932 -1.43201303 0
v 0.59315932 -1.43201303 0
v -0.86113387 -1.28877795 0
v 0.86113387 -1.28877795 0
v -1.09601498 -1.09601498 0
v 1.09601498 -1.09601498 0
v -1.28877795 -0.86113387 0
v 1.28877795 -0.86113387 0
v -1.43201303 -0.59315932 0
v 1.43201303 -0.59315932 0
v -1.52021694 -0.30239001 0
v 1.52021694 -0.30239001 0
v -1.54999995 -0 0
v 1.54999995 -0 0
v -1.52021694 0.30239001 0
v 1.52021694 0.30239001 0
v -1.43201303 0.59315932 0
v 1.43201303 0.59315932 0
v -1.28877795 0.86113387 0
v 1.28877795 0.86113387 0
v -1.09601498 1.09601498 0
v 1.09601498 1.09601498 0
v -0.86113387 1.28877795 0
v 0.86113387 1.28877795 0
v -0.59315932 1.43201303 0
v 0.59315932 1.43201303 0
v 2.04999995 -0 0.5
v 2.04999995 0 15
v 2.0106101 -0.39993519 0.5
v 2.0106101 -0.39993519 15
v 1.89395297 -0.78450102 0.5
v 1.89395297 -0.78450102 15
v 1.70451295 -1.138919 0.5
v 1.70451295 -1.138919 15
v 1.44956899 -1.44956899 0.5
v 1.44956899 -1.44956899 15
v 1.138919 -1.70451295 0.5
v 1.138919 -1.70451295 15
v 0.78450102 -1.89395297 0.5
v 0.78450102 -1.89395297 15
v 0.39993519 -2.0106101 0.5
v 0.39993519 -2.0106101 15
v -0 -2.04999995 0.5
v 0 -2.04999995 15
v -0.39993519 -2.0106101 0.5
v -0.39993519 -2.0106101 15
v -0.78450102 -1.89395297 0.5
v -0.78450102 -1.89395297 15
v -1.138919 -1.70451295 0.5
v -1.138919 -1.70451295 15
v -1.44956899 -1.44956899 0.5
v -1.44956899 -1.44956899 15
v -1.70451295 -1.138919 0.5
v -1.70451295 -1.138919 15
v -1.89395297 -0.78450102 0.5
v -1.89395297 -0.78450102 15
v -2.0106101 -0.39993519 0.5
v -2.0106101 -0.39993519 15
v -2.04999995 0 0.5
v -2.04999995 0 15
v -2.0106101 0.39993519 0.5
v -2.0106101 0.39993519 15
v -1.89395297 0.78450102 0.5
v -1.89395297 0.78450102 15
v -1.70451295 1.138919 0.5
v -1.70451295 1.138919 15
v -1.44956899 1.44956899 0.5
v -1.44956899 1.44956899 15
v -1.138919 1.70451295 0.5
v -1.138919 1.70451295 15
v -0.78450102 1.89395297 0.5
v -0.78450102 1.89395297 15
v -0.39993519 2.0106101 0.5
v -0.39993519 2.0106101 15
v -0 2.04999995 0.5
v 0 2.04999995 15
v 0.39993519 2.0106101 0.5
v 0.39993519 2.0106101 15
v 0.78450102 1.89395297 0.5
v 0.78450102 1.89395297 15
v 1.138919 1.70451295 0.5
v 1.138919 1.70451295 15
v 1.44956899 1.44956899 0.5
v 1.44956899 1.44956899 15
v 1.70451295 1.138919 0.5
v 1.70451295 1.138919 15
v 1.89395297 0.78450102 0.5
v 1.89395297 0.78450102 15
v 2.0106101 0.39993519 0.5
v 2.0106101 0.39993519 15
vn 0 0 -1
vn 0 0 -1
vn 0.99518 -0.09802 0
vn 0.99518 -0.09802 0
vn 0.95694 -0.29029 0
vn 0.95694 -0.29028 0
vn 0.88192 -0.4714 0
vn 0.88192 -0.4714 0
vn 0.77301 -0.63439 0
vn 0.63439 -0.77301 0
vn 0.4714 -0.88192 0
vn 0.4714 -0.88192 0
vn 0.29029 -0.95694 0
vn 0.29029 -0.95694 0
vn 0.09802 -0.99518 0
vn -0.09802 -0.99518 0
vn -0.29029 -0.95694 0
vn -0.29029 -0.95694 0
vn -0.4714 -0.88192 0
vn -0.4714 -0.88192 0
vn -0.63439 -0.77301 0
vn -0.77301 -0.63439 0
vn -0.88192 -0.4714 0
vn -0.88192 -0.4714 0
vn -0.95694 -0.29028 0
vn -0.95694 -0.29029 0
vn -0.99518 -0.09802 0
vn -0.99518 -0.09802 0
vn -0.99518 0.09802 0
vn -0.99518 0.09802 0
vn -0.95694 0.29029 0
vn -0.95694 0.29028 0
vn -0.88192 0.4714 0
vn -0.88192 0.4714 0
vn -0.77301 0.63439 0
vn -0.63439 0.77301 0
vn -0.4714 0.88192 0
vn -0.4714 0.88192 0
vn -0.29029 0.95694 0
vn -0.29029 0.95694 0
vn -0.09802 0.99518 0
vn 0.09802 0.99518 0
vn 0.29029 0.95694 0
vn 0.29029 0.95694 0
vn 0.4714 0.88192 0
vn 0.4714 0.88192 0
vn 0.63439 0.77301 0
vn 0.77301 0.63439 0
vn 0.88192 0.4714 0
vn 0.88192 0.4714 0
vn 0.95694 0.29028 0
vn 0.95694 0.29029 0
vn 0.99518 0.09802 0
vn 0.99518 0.09802 0
vn -0.7054 -0.06948 -0.7054
vn -0.7054 -0.06948 -0.7054
vn -0.67829 -0.20576 -0.7054
vn -0.67829 -0.20576 -0.7054
vn -0.62512 -0.33413 -0.7054
vn -0.62512 -0.33413 -0.7054
vn -0.54792 -0.44966 -0.7054
vn -0.54792 -0.44967 -0.7054
vn -0.44966 -0.54792 -0.7054
vn -0.44967 -0.54792 -0.7054
vn -0.33413 -0.62512 -0.7054
vn -0.33413 -0.62512 -0.7054
vn -0.20576 -0.67829 -0.7054
vn -0.20576 -0.67829 -0.7054
vn -0.06948 -0.7054 -0.7054
vn -0.06948 -0.7054 -0.7054
vn 0.06948 -0.7054 -0.7054
vn 0.06948 -0.7054 -0.7054
vn 0.20576 -0.67829 -0.7054
vn 0.20576 -0.67829 -0.7054
vn 0.33413 -0.62512 -0.7054
vn 0.33413 -0.62512 -0.7054
vn 0.44967 -0.54792 -0.7054
vn 0.44967 -0.54792 -0.7054
vn 0.54792 -0.44966 -0.7054
vn 0.54792 -0.44967 -0.7054
vn 0.62512 -0.33413 -0.7054
vn 0.62512 -0.33413 -0.7054
vn 0.67829 -0.20576 -0.7054
vn 0.67829 -0.20576 -0.7054
vn 0.7054 -0.06948 -0.7054
vn 0.7054 -0.06948 -0.7054
vn 0.7054 0.06948 -0.7054
vn 0.7054 0.06948 -0.7054
vn 0.67829 0.20576 -0.7054
vn 0.67829 0.20576 -0.7054
vn 0.62512 0.33413 -0.7054
vn 0.62512 0.33413 -0.7054
vn 0.54792 0.44966 -0.7054
vn 0.54792 0.44967 -0.7054
vn 0.44966 0.54792 -0.7054
vn 0.44967 0.54792 -0.7054
vn 0.33413 0.62512 -0.7054
vn 0.33413 0.62512 -0.7054
vn 0.20576 0.67829 -0.7054
vn 0.20576 0.67829 -0.7054
vn 0.06948 0.7054 -0.7054
vn 0.06948 0.7054 -0.7054
vn -0.06948 0.7054 -0.7054
vn -0.06948 0.7054 -0.7054
vn -0.20576 0.67829 -0.7054
vn -0.20576 0.67829 -0.7054
vn -0.33413 0.62512 -0.7054
vn -0.33413 0.62512 -0.7054
vn -0.44967 0.54792 -0.7054
vn -0.44967 0.54792 -0.7054
vn -0.54792 0.44966 -0.7054
vn -0.54792 0.44967 -0.7054
vn -0.62512 0.33413 -0.7054
vn -0.62512 0.33413 -0.7054
vn -0.67829 0.20576 -0.7054
vn -0.67829 0.20576 -0.7054
vn -0.7054 0.06948 -0.7054
vn -0.7054 0.06948 -0.7054
vn 0 0 1
vn 0 0 1
f 1//1 2//1 3//1
f 4//1 5//1 6//1
f 6//1 5//1 7//1
f 6//1 7//1 8//1
f 8//1 7//1 9//1
f 8//1 9//1 10//1
f 10//1 9//1 11//1
f 10//1 11//1 12//1
f 12//1 11//1 13//1
f 12//1 13//1 14//1
f 14//1 13//1 15//1
f 14//1 15//1 16//1
f 16//1 15//1 17//1
f 16//1 17//1 18//1
f 18//1 17//1 19//1
f 18//2 19//2 20//2
f 20//2 19//2 21//2
f 20//1 21//1 22//1
f 22//1 21//1 23//1
f 22//1 23//1 24//1
f 24//2 23//2 25//2
f 24//1 25//1 26//1
f 26//1 25//1 27//1
f 26//1 27//1 28//1
f 28//1 27//1 29//1
f 28//1 29//1 30//1
f 30//1 29//1 31//1
f 30//1 31//1 32//1
f 32//2 31//2 3//2
f 32//1 3//1 2//1
f 33//3 34//3 35//3
f 35//4 34//4 36//4
f 35//5 36//5 37//5
f 37//6 36//6 38//6
f 37//7 38//7 39//7
f 39//8 38//8 40//8
f 39//9 40//9 41//9
f 41//9 40//9 42//9
f 41//10 42//10 43//10
f 43//10 42//10 44//10
f 43//11 44//11 45//11
f 45//12 44//12 46//12
f 45//13 46//13 47//13
f 47//14 46//14 48//14
f 47//15 48//15 49//15
f 49//15 48//15 50//15
f 49//16 50//16 51//16
f 51//16 50//16 52//16
f 51//17 52//17 53//17
f 53//18 52//18 54//18
f 53//19 54//19 55//19
f 55//20 54//20 56//20
f 55//21 56//21 57//21
f 57//21 56//21 58//21
f 57//22 58//22 59//22
f 59//22 58//22 60//22
f 59//23 60//23 61//23
f 61//24 60//24 62//24
f 61//25 62//25 63//25
f 63//26 62//26 64//26
f 63//27 64//27 65//27
f 65//28 64//28 66//28
f 65//29 66//29 67//29
f 67//30 66//30 68//30
f 67//31 68//31 69//31
f 69//32 68//32 70//32
f 69//33 70//33 71//33
f 71//34 70//34 72//34
f 71//35 72//35 73//35
f 73//35 72//35 74//35
f 73//36 74//36 75//36
f 75//36 74//36 76//36
f 75//37 76//37 77//37
f 77//38 76//38 78//38
f 77//39 78//39 79//39
f 79//40 78//40 80//40
f 79//41 80//41 81//41
f 81//41 80//41 82//41
f 81//42 82//42 83//42
f 83//42 82//42 84//42
f 83//43 84//43 85//43
f 85//44 84//44 86//44
f 85//45 86//45 87//45
f 87//46 86//46 88//46
f 87//47 88//47 89//47
f 89//47 88//47 90//47
f 89//48 90//48 91//48
f 91//48 90//48 92//48
f 91//49 92//49 93//49
f 93//50 92//50 94//50
f 93//51 94//51 95//51
f 95//52 94//52 96//52
f 95//53 96//53 33//53
f 33//54 96//54 34//54
f 65//55 19//55 63//55
f 63//56 19//56 17//56
f 63//57 17//57 61//57
f 61//58 17//58 15//58
f 61//59 15//59 59//59
f 59//60 15//60 13//60
f 59//61 13//61 57//61
f 57//62 13//62 11//62
f 57//63 11//63 55//63
f 55//64 11//64 9//64
f 55//65 9//65 53//65
f 53//66 9//66 7//66
f 53//67 7//67 51//67
f 51//68 7//68 5//68
f 51//69 5//69 49//69
f 49//70 5//70 4//70
f 49//71 4//71 47//71
f 47//72 4//72 6//72
f 47//73 6//73 45//73
f 45//74 6//74 8//74
f 45//75 8//75 43//75
f 43//76 8//76 10//76
f 43//77 10//77 41//77
f 41//78 10//78 12//78
f 41//79 12//79 39//79
f 39//80 12//80 14//80
f 39//81 14//81 37//81
f 37//82 14//82 16//82
f 37//83 16//83 35//83
f 35//84 16//84 18//84
f 35//85 18//85 33//85
f 33//86 18//86 20//86
f 33//87 20//87 95//87
f 95//88 20//88 22//88
f 95//89 22//89 93//89
f 93//90 22//90 24//90
f 93//91 24//91 91//91
f 91//92 24//92 26//92
f 91//93 26//93 89//93
f 89//94 26//94 28//94
f 89//95 28//95 87//95
f 87//96 28//96 30//96
f 87//97 30//97 85//97
f 85//98 30//98 32//98
f 85//99 32//99 83//99
f 83//100 32//100 2//100
f 83//101 2//101 81//101
f 81//102 2//102 1//102
f 81//103 1//103 79//103
f 79//104 1//104 3//104
f 79//105 3//105 77//105
f 77//106 3//106 31//106
f 77//107 31//107 75//107
f 75//108 31//108 29//108
f 75//109 29//109 73//109
f 73//110 29//110 27//110
f 73//111 27//111 71//111
f 71//112 27//112 25//112
f 71//113 25//113 69//113
f 69//114 25//114 23//114
f 69//115 23//115 67//115
f 67//116 23//116 21//116
f 67//117 21//117 65//117
f 65//118 21//118 19//118
f 80//119 84//119 82//119
f 84//119 80//119 86//119
f 86//119 80//119 78//119
f 86//119 78//119 88//119
f 88//119 78//119 76//119
f 88//119 76//119 90//119
f 90//119 76//119 74//119
f 90//119 74//119 92//119
f 92//120 74//120 72//120
f 92//120 72//120 94//120
f 94//119 72//119 70//119
f 94//119 70//119 96//119
f 96//119 70//119 68//119
f 96//119 68//119 34//119
f 34//120 68//120 66//120
f 34//120 66//120 36//120
f 36//120 66//120 64//120
f 36//120 64//120 38//120
f 38//119 64//119 62//119
f 38//119 62//119 40//119
f 40//120 62//120 60//120
f 40//119 60//119 42//119
f 42//119 60//119 58//119
f 42//119 58//119 44//119
f 44//119 58//119 56//119
f 44//119 56//119 46//119
f 46//119 56//119 54//119
f 46//119 54//119 48//119
f 48//119 54//119 52//119
f 48//119 52//119 50//119
# Vertices: 96, normals: 120, texture coordinates: 0, faces: 188

