# File generated by ImageToStl.com - Free Image and 3D model conversion tools

o obj1
v 2.15652895 26.66292953 25
v 7.21747398 26.63960075 25
v 0.7195372 26.74032021 25
v 5.79837513 26.98405075 25
v -0.7195372 26.74032021 25
v -5.79837513 26.98405075 25
v -2.15652895 26.66292953 25
v -7.21747398 26.63960075 25
v -3.58728004 26.50838089 25
v -8.61636734 26.22056961 25
v -5.00764799 26.27709961 25
v -6.41352415 25.96977043 25
v -9.99114037 25.72813988 25
v -7.80083799 25.58728981 25
v -9.16557598 25.13075066 25
v -11.33794022 25.16367912 25
v -10.5037899 24.60148048 25
v -12.65301037 24.52878952 25
v -11.81159973 24.00101089 25
v -13.93264961 23.82522011 25
v -13.08522987 23.33107948 25
v -15.17329025 23.05496025 25
v -14.32098007 22.59362984 25
v -16.37145042 22.22015953 25
v -15.51529026 21.79077911 25
v -17.52378082 21.32315063 25
v -16.66469955 20.92486954 25
v -17.76588058 19.99839973 25
v -18.62705994 20.3664608 25
v -18.8156395 19.01405907 25
v -19.67819023 19.35275078 25
v -19.81093979 17.97467995 25
v -20.67423058 18.28486061 25
v -20.7489109 16.8832798 25
v -21.61240005 17.16577911 25
v -21.62682915 15.74302006 25
v -22.49007034 15.9986496 25
v -22.44215965 14.55720043 25
v -23.30476952 14.7867403 25
v -23.19253922 13.32925034 25
v -24.05423927 13.53341961 25
v -23.87578964 12.0627203 25
v -24.73637009 12.24223042 25
v -24.48995018 10.76128006 25
v -25.34925079 10.91676044 25
v -25.03322029 9.42868996 25
v -25.89115906 9.56072998 25
v -25.5040493 8.06881618 25
v -26.36059952 8.17793846 25
v -25.90106964 6.68559122 25
v -26.75624084 6.77225113 25
v -26.22311974 5.2830162 25
v -27.07698059 5.34760618 25
v -26.46928978 3.86515188 25
v -27.32192993 3.90798998 25
v -26.63883972 2.43610096 25
v -27.49037933 2.45743489 25
v -26.73130035 1 25
v -27.58188057 1 25
v -4.36304379 27.25296021 25
v 4.36304379 27.25296021 25
v -2.91549897 27.44557953 25
v 2.91549897 27.44557953 25
v -1.45979297 27.56137085 25
v 1.45979297 27.56137085 25
v -0 27.60000038 25
v 8.61636734 26.22056961 25
v 3.58728004 26.50838089 25
v 5.00764799 26.27709961 25
v 9.99114037 25.72813988 25
v 6.41352415 25.96977043 25
v 7.80083799 25.58728981 25
v 11.33794022 25.16367912 25
v 9.16557598 25.13075066 25
v 12.65301037 24.52878952 25
v 10.5037899 24.60148048 25
v 13.93264961 23.82522011 25
v 11.81159973 24.00101089 25
v 15.17329025 23.05496025 25
v 13.08522987 23.33107948 25
v 16.37145042 22.22015953 25
v 14.32098007 22.59362984 25
v 17.52378082 21.32315063 25
v 15.51529026 21.79077911 25
v 16.66469955 20.92486954 25
v 18.62705994 20.3664608 25
v 17.76588058 19.99839973 25
v 19.67819023 19.35275078 25
v 18.8156395 19.01405907 25
v 20.67423058 18.28486061 25
v 19.81093979 17.97467995 25
v 21.61240005 17.16577911 25
v 20.7489109 16.8832798 25
v 22.49007034 15.9986496 25
v 21.62682915 15.74302006 25
v 23.30476952 14.7867403 25
v 22.44215965 14.55720043 25
v 24.05423927 13.53341961 25
v 23.19253922 13.32925034 25
v 24.73637009 12.24223042 25
v 23.87578964 12.0627203 25
v 25.34925079 10.91676044 25
v 24.48995018 10.76128006 25
v 25.89115906 9.56072998 25
v 25.03322029 9.42868996 25
v 26.36059952 8.17793846 25
v 25.5040493 8.06881618 25
v 26.75624084 6.77225113 25
v 25.90106964 6.68559122 25
v 27.07698059 5.34760618 25
v 26.22311974 5.2830162 25
v 27.32192993 3.90798998 25
v 26.46928978 3.86515188 25
v 27.49037933 2.45743489 25
v 26.63883972 2.43610096 25
v 27.58188057 1 25
v 26.73130035 1 25
v -5.00764799 26.27709961 0
v -8.61636734 26.22056961 0
v -3.58728004 26.50838089 0
v -7.21747398 26.63960075 0
v -2.15652895 26.66292953 0
v -5.79837513 26.98405075 0
v -0.7195372 26.74032021 0
v 5.79837513 26.98405075 0
v 0.7195372 26.74032021 0
v 7.21747398 26.63960075 0
v 2.15652895 26.66292953 0
v -7.80083799 25.58728981 0
v -9.99114037 25.72813988 0
v -6.41352415 25.96977043 0
v -16.66469955 20.92486954 0
v -17.52378082 21.32315063 0
v -15.51529026 21.79077911 0
v -16.37145042 22.22015953 0
v -14.32098007 22.59362984 0
v -15.17329025 23.05496025 0
v -13.08522987 23.33107948 0
v -13.93264961 23.82522011 0
v -11.81159973 24.00101089 0
v -12.65301037 24.52878952 0
v -10.5037899 24.60148048 0
v -11.33794022 25.16367912 0
v -9.16557598 25.13075066 0
v -23.87578964 12.0627203 0
v -24.05423927 13.53341961 0
v -23.19253922 13.32925034 0
v -23.30476952 14.7867403 0
v -22.44215965 14.55720043 0
v -22.49007034 15.9986496 0
v -21.62682915 15.74302006 0
v -21.61240005 17.16577911 0
v -20.7489109 16.8832798 0
v -20.67423058 18.28486061 0
v -19.81093979 17.97467995 0
v -19.67819023 19.35275078 0
v -18.8156395 19.01405907 0
v -18.62705994 20.3664608 0
v -17.76588058 19.99839973 0
v -24.73637009 12.24223042 0
v -24.48995018 10.76128006 0
v -25.34925079 10.91676044 0
v -25.03322029 9.42868996 0
v -25.89115906 9.56072998 0
v -25.5040493 8.06881618 0
v -26.36059952 8.17793846 0
v -25.90106964 6.68559122 0
v -26.75624084 6.77225113 0
v -26.22311974 5.2830162 0
v -27.07698059 5.34760618 0
v -26.46928978 3.86515188 0
v -27.32192993 3.90798998 0
v -26.63883972 2.43610096 0
v -27.49037933 2.45743489 0
v -26.73130035 1 0
v -27.58188057 1 0
v -0 27.60000038 0
v 1.45979297 27.56137085 0
v -1.45979297 27.56137085 0
v 2.91549897 27.44557953 0
v -2.91549897 27.44557953 0
v 4.36304379 27.25296021 0
v -4.36304379 27.25296021 0
v 5.00764799 26.27709961 0
v 3.58728004 26.50838089 0
v 8.61636734 26.22056961 0
v 7.80083799 25.58728981 0
v 6.41352415 25.96977043 0
v 9.99114037 25.72813988 0
v 16.66469955 20.92486954 0
v 15.51529026 21.79077911 0
v 17.52378082 21.32315063 0
v 14.32098007 22.59362984 0
v 16.37145042 22.22015953 0
v 13.08522987 23.33107948 0
v 15.17329025 23.05496025 0
v 11.81159973 24.00101089 0
v 13.93264961 23.82522011 0
v 10.5037899 24.60148048 0
v 12.65301037 24.52878952 0
v 9.16557598 25.13075066 0
v 11.33794022 25.16367912 0
v 24.73637009 12.24223042 0
v 23.19253922 13.32925034 0
v 24.05423927 13.53341961 0
v 22.44215965 14.55720043 0
v 23.30476952 14.7867403 0
v 21.62682915 15.74302006 0
v 22.49007034 15.9986496 0
v 20.7489109 16.8832798 0
v 21.61240005 17.16577911 0
v 19.81093979 17.97467995 0
v 20.67423058 18.28486061 0
v 18.8156395 19.01405907 0
v 19.67819023 19.35275078 0
v 17.76588058 19.99839973 0
v 18.62705994 20.3664608 0
v 23.87578964 12.0627203 0
v 25.34925079 10.91676044 0
v 24.48995018 10.76128006 0
v 25.89115906 9.56072998 0
v 25.03322029 9.42868996 0
v 26.36059952 8.17793846 0
v 25.5040493 8.06881618 0
v 26.75624084 6.77225113 0
v 25.90106964 6.68559122 0
v 27.07698059 5.34760618 0
v 26.22311974 5.2830162 0
v 27.32192993 3.90798998 0
v 26.46928978 3.86515188 0
v 27.49037933 2.45743489 0
v 26.63883972 2.43610096 0
v 27.58188057 1 0
v 26.73130035 1 0
vn 0 0 1
vn 0 0 1
vn -0 0 1
vn 0 0 1
vn 0 0 1
vn 1E-05 0 1
vn -1E-05 0 1
vn -1E-05 0 1
vn -1E-05 0 1
vn 1E-05 0 1
vn -0 0 1
vn 0 0 1
vn 1E-05 0 1
vn 0 0 -1
vn 0 0 -1
vn 0 -1 0
vn 0.05378 -0.99855 0
vn 0.10739 -0.99422 0
vn 0.10739 -0.99422 0
vn 0.16072 -0.987 0
vn 0.21356 -0.97693 0
vn 0.21356 -0.97693 0
vn 0.26578 -0.96403 0
vn 0.26578 -0.96403 0
vn 0.31724 -0.94834 0
vn 0.31724 -0.94834 0
vn 0.36778 -0.92991 0
vn 0.36778 -0.92991 0
vn 0.41726 -0.90879 0
vn 0.41726 -0.90879 0
vn 0.46553 -0.88503 0
vn 0.51245 -0.85872 0
vn 0.51245 -0.85872 0
vn 0.55789 -0.82991 0
vn 0.55789 -0.82991 0
vn 0.60171 -0.79871 0
vn 0.60171 -0.79871 0
vn 0.64379 -0.7652 0
vn 0.64379 -0.7652 0
vn 0.68401 -0.72947 0
vn 0.68401 -0.72947 0
vn 0.72226 -0.69163 0
vn 0.7584 -0.65179 0
vn 0.7584 -0.65179 0
vn 0.79236 -0.61006 0
vn 0.79236 -0.61006 0
vn 0.82402 -0.56657 0
vn 0.85329 -0.52143 0
vn 0.85329 -0.52143 0
vn 0.8801 -0.47479 0
vn 0.8801 -0.47478 0
vn 0.90436 -0.42677 0
vn 0.90436 -0.42678 0
vn 0.92601 -0.37751 0
vn 0.926 -0.37751 0
vn 0.94496 -0.32718 0
vn 0.96119 -0.27589 0
vn 0.96119 -0.27588 0
vn 0.97464 -0.22379 0
vn 0.98526 -0.17106 0
vn 0.98526 -0.17106 0
vn 0.99304 -0.11782 0
vn 0.99793 -0.06425 0
vn 0.05378 -0.99855 0
vn -0.05378 -0.99855 0
vn -0.05378 -0.99855 0
vn -0.10739 -0.99422 0
vn -0.10739 -0.99422 0
vn -0.16072 -0.987 0
vn -0.21356 -0.97693 0
vn -0.21356 -0.97693 0
vn -0.26578 -0.96403 0
vn -0.26578 -0.96403 0
vn -0.31724 -0.94834 0
vn -0.31724 -0.94834 0
vn -0.36778 -0.92991 0
vn -0.36778 -0.92991 0
vn -0.41726 -0.90879 0
vn -0.41726 -0.90879 0
vn -0.46553 -0.88503 0
vn -0.51245 -0.85872 0
vn -0.51245 -0.85872 0
vn -0.55789 -0.82991 0
vn -0.55789 -0.82991 0
vn -0.60171 -0.79871 0
vn -0.60171 -0.79871 0
vn -0.64379 -0.7652 0
vn -0.64379 -0.7652 0
vn -0.68401 -0.72947 0
vn -0.68401 -0.72947 0
vn -0.72226 -0.69163 0
vn -0.7584 -0.65179 0
vn -0.7584 -0.65179 0
vn -0.79236 -0.61006 0
vn -0.79236 -0.61006 0
vn -0.82402 -0.56657 0
vn -0.85329 -0.52143 0
vn -0.85329 -0.52143 0
vn -0.8801 -0.47479 0
vn -0.8801 -0.47478 0
vn -0.90436 -0.42677 0
vn -0.90436 -0.42678 0
vn -0.92601 -0.37751 0
vn -0.926 -0.37751 0
vn -0.94496 -0.32718 0
vn -0.96119 -0.27589 0
vn -0.96119 -0.27588 0
vn -0.97464 -0.22379 0
vn -0.98526 -0.17106 0
vn -0.98526 -0.17106 0
vn -0.99304 -0.11782 0
vn -0.99793 -0.06425 0
vn -0.99803 0.06266 0
vn -0.99804 0.06266 0
vn -0.99332 0.11535 0
vn -0.99332 0.11535 0
vn -0.98583 0.16774 0
vn -0.98583 0.16774 0
vn -0.97558 0.21964 0
vn -0.97558 0.21964 0
vn -0.9626 0.27093 0
vn -0.94692 0.32147 0
vn -0.94692 0.32147 0
vn -0.9286 0.37109 0
vn -0.90767 0.41969 0
vn -0.8842 0.46712 0
vn -0.88419 0.46712 0
vn -0.85825 0.51322 0
vn -0.82991 0.5579 0
vn -0.82991 0.5579 0
vn -0.79924 0.60102 0
vn -0.76633 0.64245 0
vn -0.73128 0.68208 0
vn -0.73128 0.68208 0
vn -0.69418 0.7198 0
vn -0.69418 0.7198 0
vn -0.65513 0.75552 0
vn -0.65513 0.75551 0
vn -0.61426 0.7891 0
vn -0.61426 0.7891 0
vn -0.57166 0.82049 0
vn -0.57166 0.82049 0
vn -0.52747 0.84958 0
vn -0.4818 0.87628 0
vn -0.4818 0.87628 0
vn -0.43477 0.90054 0
vn -0.43476 0.90054 0
vn -0.38654 0.92227 0
vn -0.38654 0.92227 0
vn -0.33721 0.94143 0
vn -0.28695 0.95795 0
vn -0.28695 0.95795 0
vn -0.23588 0.97178 0
vn -0.23588 0.97178 0
vn -0.18415 0.9829 0
vn -0.1319 0.99126 0
vn -0.1319 0.99126 0
vn -0.07929 0.99685 0
vn -0.07929 0.99685 0
vn -0.02645 0.99965 0
vn 0.02645 0.99965 0
vn 0.07929 0.99685 0
vn 0.07929 0.99685 0
vn 0.1319 0.99126 0
vn 0.1319 0.99126 0
vn 0.18415 0.9829 0
vn 0.23588 0.97178 0
vn 0.23588 0.97178 0
vn 0.28695 0.95795 0
vn 0.28695 0.95795 0
vn 0.33721 0.94143 0
vn 0.38654 0.92227 0
vn 0.38654 0.92227 0
vn 0.43476 0.90054 0
vn 0.43477 0.90054 0
vn 0.4818 0.87628 0
vn 0.4818 0.87628 0
vn 0.52747 0.84958 0
vn 0.57166 0.82049 0
vn 0.57166 0.82049 0
vn 0.61426 0.7891 0
vn 0.61426 0.7891 0
vn 0.65513 0.75551 0
vn 0.65513 0.75552 0
vn 0.69418 0.7198 0
vn 0.69418 0.7198 0
vn 0.73128 0.68208 0
vn 0.73128 0.68208 0
vn 0.76633 0.64245 0
vn 0.79924 0.60102 0
vn 0.82991 0.5579 0
vn 0.82991 0.5579 0
vn 0.85825 0.51322 0
vn 0.88419 0.46712 0
vn 0.8842 0.46712 0
vn 0.90767 0.41969 0
vn 0.9286 0.37109 0
vn 0.94692 0.32147 0
vn 0.94692 0.32147 0
vn 0.9626 0.27093 0
vn 0.97558 0.21964 0
vn 0.97558 0.21964 0
vn 0.98583 0.16774 0
vn 0.98583 0.16774 0
vn 0.99332 0.11535 0
vn 0.99332 0.11535 0
vn 0.99804 0.06266 0
vn 0.99803 0.06266 0
f 1//1 2//1 3//1
f 3//1 2//1 4//1
f 3//2 4//2 5//2
f 5//1 4//1 6//1
f 5//1 6//1 7//1
f 7//1 6//1 8//1
f 7//1 8//1 9//1
f 9//1 8//1 10//1
f 9//1 10//1 11//1
f 11//1 10//1 12//1
f 12//1 10//1 13//1
f 12//1 13//1 14//1
f 14//1 13//1 15//1
f 15//1 13//1 16//1
f 15//2 16//2 17//2
f 17//1 16//1 18//1
f 17//1 18//1 19//1
f 19//1 18//1 20//1
f 19//1 20//1 21//1
f 21//1 20//1 22//1
f 21//1 22//1 23//1
f 23//1 22//1 24//1
f 23//1 24//1 25//1
f 25//1 24//1 26//1
f 25//1 26//1 27//1
f 27//1 26//1 28//1
f 28//3 26//3 29//3
f 28//1 29//1 30//1
f 30//1 29//1 31//1
f 30//1 31//1 32//1
f 32//1 31//1 33//1
f 32//1 33//1 34//1
f 34//2 33//2 35//2
f 34//1 35//1 36//1
f 36//1 35//1 37//1
f 36//2 37//2 38//2
f 38//4 37//4 39//4
f 38//1 39//1 40//1
f 40//5 39//5 41//5
f 40//1 41//1 42//1
f 42//2 41//2 43//2
f 42//1 43//1 44//1
f 44//1 43//1 45//1
f 44//6 45//6 46//6
f 46//7 45//7 47//7
f 46//1 47//1 48//1
f 48//1 47//1 49//1
f 48//1 49//1 50//1
f 50//8 49//8 51//8
f 50//1 51//1 52//1
f 52//1 51//1 53//1
f 52//9 53//9 54//9
f 54//10 53//10 55//10
f 54//1 55//1 56//1
f 56//1 55//1 57//1
f 56//1 57//1 58//1
f 58//1 57//1 59//1
f 6//1 4//1 60//1
f 60//1 4//1 61//1
f 60//1 61//1 62//1
f 62//1 61//1 63//1
f 62//1 63//1 64//1
f 64//1 63//1 65//1
f 64//1 65//1 66//1
f 2//1 1//1 67//1
f 67//1 1//1 68//1
f 67//1 68//1 69//1
f 67//1 69//1 70//1
f 70//1 69//1 71//1
f 70//1 71//1 72//1
f 70//1 72//1 73//1
f 73//1 72//1 74//1
f 73//1 74//1 75//1
f 75//1 74//1 76//1
f 75//1 76//1 77//1
f 77//1 76//1 78//1
f 77//1 78//1 79//1
f 79//1 78//1 80//1
f 79//1 80//1 81//1
f 81//1 80//1 82//1
f 81//1 82//1 83//1
f 83//1 82//1 84//1
f 83//1 84//1 85//1
f 83//1 85//1 86//1
f 86//1 85//1 87//1
f 86//1 87//1 88//1
f 88//1 87//1 89//1
f 88//1 89//1 90//1
f 90//1 89//1 91//1
f 90//1 91//1 92//1
f 92//2 91//2 93//2
f 92//1 93//1 94//1
f 94//1 93//1 95//1
f 94//2 95//2 96//2
f 96//1 95//1 97//1
f 96//2 97//2 98//2
f 98//1 97//1 99//1
f 98//1 99//1 100//1
f 100//11 99//11 101//11
f 100//1 101//1 102//1
f 102//1 101//1 103//1
f 102//1 103//1 104//1
f 104//1 103//1 105//1
f 104//12 105//12 106//12
f 106//1 105//1 107//1
f 106//13 107//13 108//13
f 108//1 107//1 109//1
f 108//1 109//1 110//1
f 110//2 109//2 111//2
f 110//1 111//1 112//1
f 112//1 111//1 113//1
f 112//1 113//1 114//1
f 114//1 113//1 115//1
f 114//1 115//1 116//1
f 116//1 115//1 117//1
f 118//14 119//14 120//14
f 120//14 119//14 121//14
f 120//14 121//14 122//14
f 122//14 121//14 123//14
f 122//14 123//14 124//14
f 124//14 123//14 125//14
f 124//15 125//15 126//15
f 126//14 125//14 127//14
f 126//14 127//14 128//14
f 129//14 130//14 131//14
f 131//14 130//14 119//14
f 131//14 119//14 118//14
f 132//14 133//14 134//14
f 134//14 133//14 135//14
f 134//14 135//14 136//14
f 136//14 135//14 137//14
f 136//14 137//14 138//14
f 138//14 137//14 139//14
f 138//14 139//14 140//14
f 140//14 139//14 141//14
f 140//14 141//14 142//14
f 142//14 141//14 143//14
f 142//14 143//14 144//14
f 144//14 143//14 130//14
f 144//14 130//14 129//14
f 145//14 146//14 147//14
f 147//14 146//14 148//14
f 147//14 148//14 149//14
f 149//14 148//14 150//14
f 149//14 150//14 151//14
f 151//14 150//14 152//14
f 151//14 152//14 153//14
f 153//15 152//15 154//15
f 153//14 154//14 155//14
f 155//14 154//14 156//14
f 155//14 156//14 157//14
f 157//14 156//14 158//14
f 157//14 158//14 159//14
f 159//14 158//14 133//14
f 159//14 133//14 132//14
f 146//15 145//15 160//15
f 160//14 145//14 161//14
f 160//14 161//14 162//14
f 162//15 161//15 163//15
f 162//14 163//14 164//14
f 164//14 163//14 165//14
f 164//14 165//14 166//14
f 166//14 165//14 167//14
f 166//15 167//15 168//15
f 168//14 167//14 169//14
f 168//14 169//14 170//14
f 170//14 169//14 171//14
f 170//15 171//15 172//15
f 172//14 171//14 173//14
f 172//14 173//14 174//14
f 174//14 173//14 175//14
f 174//14 175//14 176//14
f 177//14 178//14 179//14
f 179//14 178//14 180//14
f 179//14 180//14 181//14
f 181//14 180//14 182//14
f 181//14 182//14 183//14
f 183//14 182//14 125//14
f 183//14 125//14 123//14
f 184//14 185//14 186//14
f 186//14 185//14 128//14
f 186//14 128//14 127//14
f 187//14 188//14 189//14
f 189//14 188//14 184//14
f 189//14 184//14 186//14
f 190//14 191//14 192//14
f 192//14 191//14 193//14
f 192//14 193//14 194//14
f 194//14 193//14 195//14
f 194//14 195//14 196//14
f 196//14 195//14 197//14
f 196//14 197//14 198//14
f 198//14 197//14 199//14
f 198//14 199//14 200//14
f 200//14 199//14 201//14
f 200//14 201//14 202//14
f 202//14 201//14 187//14
f 202//14 187//14 189//14
f 203//14 204//14 205//14
f 205//14 204//14 206//14
f 205//15 206//15 207//15
f 207//14 206//14 208//14
f 207//15 208//15 209//15
f 209//14 208//14 210//14
f 209//14 210//14 211//14
f 211//15 210//15 212//15
f 211//15 212//15 213//15
f 213//14 212//14 214//14
f 213//14 214//14 215//14
f 215//14 214//14 216//14
f 215//14 216//14 217//14
f 217//14 216//14 190//14
f 217//14 190//14 192//14
f 204//14 203//14 218//14
f 218//14 203//14 219//14
f 218//14 219//14 220//14
f 220//15 219//15 221//15
f 220//14 221//14 222//14
f 222//15 221//15 223//15
f 222//14 223//14 224//14
f 224//14 223//14 225//14
f 224//14 225//14 226//14
f 226//14 225//14 227//14
f 226//14 227//14 228//14
f 228//14 227//14 229//14
f 228//14 229//14 230//14
f 230//14 229//14 231//14
f 230//14 231//14 232//14
f 232//14 231//14 233//14
f 232//14 233//14 234//14
f 116//16 117//16 233//16
f 233//16 117//16 234//16
f 124//17 7//17 122//17
f 122//18 7//18 9//18
f 122//19 9//19 120//19
f 120//20 9//20 11//20
f 120//20 11//20 118//20
f 118//21 11//21 12//21
f 118//22 12//22 131//22
f 131//23 12//23 14//23
f 131//24 14//24 129//24
f 129//25 14//25 15//25
f 129//26 15//26 144//26
f 144//27 15//27 17//27
f 144//28 17//28 142//28
f 142//29 17//29 19//29
f 142//30 19//30 140//30
f 140//31 19//31 21//31
f 140//31 21//31 138//31
f 138//32 21//32 23//32
f 138//33 23//33 136//33
f 136//34 23//34 25//34
f 136//35 25//35 134//35
f 134//36 25//36 27//36
f 134//37 27//37 132//37
f 132//38 27//38 28//38
f 132//39 28//39 159//39
f 159//40 28//40 30//40
f 159//41 30//41 157//41
f 157//42 30//42 32//42
f 157//42 32//42 155//42
f 155//43 32//43 34//43
f 155//44 34//44 153//44
f 153//45 34//45 36//45
f 153//46 36//46 151//46
f 151//47 36//47 38//47
f 151//47 38//47 149//47
f 149//48 38//48 40//48
f 149//49 40//49 147//49
f 147//50 40//50 42//50
f 147//51 42//51 145//51
f 145//52 42//52 44//52
f 145//53 44//53 161//53
f 161//54 44//54 46//54
f 161//55 46//55 163//55
f 163//56 46//56 48//56
f 163//56 48//56 165//56
f 165//57 48//57 50//57
f 165//58 50//58 167//58
f 167//59 50//59 52//59
f 167//59 52//59 169//59
f 169//60 52//60 54//60
f 169//61 54//61 171//61
f 171//62 54//62 56//62
f 171//62 56//62 173//62
f 173//63 56//63 58//63
f 173//63 58//63 175//63
f 7//64 124//64 5//64
f 5//16 124//16 126//16
f 5//16 126//16 3//16
f 3//65 126//65 128//65
f 3//66 128//66 1//66
f 1//67 128//67 185//67
f 1//68 185//68 68//68
f 68//69 185//69 184//69
f 68//69 184//69 69//69
f 69//70 184//70 188//70
f 69//71 188//71 71//71
f 71//72 188//72 187//72
f 71//73 187//73 72//73
f 72//74 187//74 201//74
f 72//75 201//75 74//75
f 74//76 201//76 199//76
f 74//77 199//77 76//77
f 76//78 199//78 197//78
f 76//79 197//79 78//79
f 78//80 197//80 195//80
f 78//80 195//80 80//80
f 80//81 195//81 193//81
f 80//82 193//82 82//82
f 82//83 193//83 191//83
f 82//84 191//84 84//84
f 84//85 191//85 190//85
f 84//86 190//86 85//86
f 85//87 190//87 216//87
f 85//88 216//88 87//88
f 87//89 216//89 214//89
f 87//90 214//90 89//90
f 89//91 214//91 212//91
f 89//91 212//91 91//91
f 91//92 212//92 210//92
f 91//93 210//93 93//93
f 93//94 210//94 208//94
f 93//95 208//95 95//95
f 95//96 208//96 206//96
f 95//96 206//96 97//96
f 97//97 206//97 204//97
f 97//98 204//98 99//98
f 99//99 204//99 218//99
f 99//100 218//100 101//100
f 101//101 218//101 220//101
f 101//102 220//102 103//102
f 103//103 220//103 222//103
f 103//104 222//104 105//104
f 105//105 222//105 224//105
f 105//105 224//105 107//105
f 107//106 224//106 226//106
f 107//107 226//107 109//107
f 109//108 226//108 228//108
f 109//108 228//108 111//108
f 111//109 228//109 230//109
f 111//110 230//110 113//110
f 113//111 230//111 232//111
f 113//111 232//111 115//111
f 115//112 232//112 234//112
f 115//112 234//112 117//112
f 58//16 59//16 175//16
f 175//16 59//16 176//16
f 176//113 59//113 174//113
f 174//114 59//114 57//114
f 174//115 57//115 172//115
f 172//116 57//116 55//116
f 172//117 55//117 170//117
f 170//118 55//118 53//118
f 170//119 53//119 168//119
f 168//120 53//120 51//120
f 168//121 51//121 166//121
f 166//121 51//121 49//121
f 166//122 49//122 164//122
f 164//123 49//123 47//123
f 164//124 47//124 162//124
f 162//124 47//124 45//124
f 162//125 45//125 160//125
f 160//125 45//125 43//125
f 160//126 43//126 146//126
f 146//127 43//127 41//127
f 146//128 41//128 148//128
f 148//128 41//128 39//128
f 148//129 39//129 150//129
f 150//130 39//130 37//130
f 150//131 37//131 152//131
f 152//131 37//131 35//131
f 152//132 35//132 154//132
f 154//132 35//132 33//132
f 154//133 33//133 156//133
f 156//134 33//134 31//134
f 156//135 31//135 158//135
f 158//136 31//136 29//136
f 158//137 29//137 133//137
f 133//138 29//138 26//138
f 133//139 26//139 135//139
f 135//140 26//140 24//140
f 135//141 24//141 137//141
f 137//142 24//142 22//142
f 137//143 22//143 139//143
f 139//143 22//143 20//143
f 139//144 20//144 141//144
f 141//145 20//145 18//145
f 141//146 18//146 143//146
f 143//147 18//147 16//147
f 143//148 16//148 130//148
f 130//149 16//149 13//149
f 130//150 13//150 119//150
f 119//150 13//150 10//150
f 119//151 10//151 121//151
f 121//152 10//152 8//152
f 121//153 8//153 123//153
f 123//154 8//154 6//154
f 123//155 6//155 183//155
f 183//155 6//155 60//155
f 183//156 60//156 181//156
f 181//157 60//157 62//157
f 181//158 62//158 179//158
f 179//159 62//159 64//159
f 179//160 64//160 177//160
f 177//160 64//160 66//160
f 177//161 66//161 178//161
f 178//161 66//161 65//161
f 178//162 65//162 180//162
f 180//163 65//163 63//163
f 180//164 63//164 182//164
f 182//165 63//165 61//165
f 182//166 61//166 125//166
f 125//166 61//166 4//166
f 125//167 4//167 127//167
f 127//168 4//168 2//168
f 127//169 2//169 186//169
f 186//170 2//170 67//170
f 186//171 67//171 189//171
f 189//171 67//171 70//171
f 189//172 70//172 202//172
f 202//173 70//173 73//173
f 202//174 73//174 200//174
f 200//175 73//175 75//175
f 200//176 75//176 198//176
f 198//177 75//177 77//177
f 198//178 77//178 196//178
f 196//178 77//178 79//178
f 196//179 79//179 194//179
f 194//180 79//180 81//180
f 194//181 81//181 192//181
f 192//182 81//182 83//182
f 192//183 83//183 217//183
f 217//184 83//184 86//184
f 217//185 86//185 215//185
f 215//186 86//186 88//186
f 215//187 88//187 213//187
f 213//188 88//188 90//188
f 213//189 90//189 211//189
f 211//189 90//189 92//189
f 211//190 92//190 209//190
f 209//190 92//190 94//190
f 209//191 94//191 207//191
f 207//192 94//192 96//192
f 207//193 96//193 205//193
f 205//193 96//193 98//193
f 205//194 98//194 203//194
f 203//195 98//195 100//195
f 203//196 100//196 219//196
f 219//196 100//196 102//196
f 219//197 102//197 221//197
f 221//197 102//197 104//197
f 221//198 104//198 223//198
f 223//199 104//199 106//199
f 223//200 106//200 225//200
f 225//200 106//200 108//200
f 225//201 108//201 227//201
f 227//202 108//202 110//202
f 227//203 110//203 229//203
f 229//204 110//204 112//204
f 229//205 112//205 231//205
f 231//206 112//206 114//206
f 231//207 114//207 233//207
f 233//208 114//208 116//208
# Vertices: 234, normals: 208, texture coordinates: 0, faces: 464

