# File generated by ImageToStl.com - Free Image and 3D model conversion tools

o obj1
v -9.99114037 25.72813988 25
v -0.71713912 25.74000931 25
v -8.61636734 26.22056961 25
v -12.65301037 24.52878952 25
v -7.76668978 24.55079079 25
v -6.38769102 24.94514084 25
v -11.33794022 25.16367912 25
v -3.57457805 25.50068092 25
v -2.14919305 25.66015053 25
v -4.988873 25.26210022 25
v -9.12159348 24.08025932 25
v -13.93264961 23.82522011 25
v -10.44820023 23.53503036 25
v -15.17329025 23.05496025 25
v -11.74238014 22.91678047 25
v -13.00014019 22.22743034 25
v -16.37145042 22.22015953 25
v -14.2175703 21.46912003 25
v -17.52378082 21.32315063 25
v -15.39087963 20.64421082 25
v -18.62705994 20.3664608 25
v -16.51645088 19.75523949 25
v -19.67819023 19.35275078 25
v -17.59075928 18.80499077 25
v -20.67423058 18.28486061 25
v -18.61050987 17.79639053 25
v -19.5725193 16.73257065 25
v -21.61240005 17.16577911 25
v -20.47380066 15.6168499 25
v -22.49007034 15.9986496 25
v -21.31156921 14.4526701 25
v -23.30476952 14.7867403 25
v -22.08320999 13.24365997 25
v -24.05423927 13.53341961 25
v -22.78634071 11.9935503 25
v -24.73637009 12.24223042 25
v -23.41877937 10.7062397 25
v -25.34925079 10.91676044 25
v -23.97854996 9.38570499 25
v -25.89115906 9.56072998 25
v -24.46393967 8.03605461 25
v -26.36059952 8.17793846 25
v -24.87342072 6.6614728 25
v -26.75624084 6.77225113 25
v -25.20573997 5.26622295 25
v -27.07698059 5.34760618 25
v -25.45985985 3.85463595 25
v -27.32192993 3.90798998 25
v -25.63497925 2.43108892 25
v -27.49037933 2.45743489 25
v -25.73057938 1 25
v -27.58188057 1 25
v 0.71713912 25.74000931 25
v 8.61636734 26.22056961 25
v -7.21747398 26.63960075 25
v 7.21747398 26.63960075 25
v -5.79837513 26.98405075 25
v 5.79837513 26.98405075 25
v -4.36304379 27.25296021 25
v 4.36304379 27.25296021 25
v -2.91549897 27.44557953 25
v 2.91549897 27.44557953 25
v -1.45979297 27.56137085 25
v 1.45979297 27.56137085 25
v -0 27.60000038 25
v 9.99114037 25.72813988 25
v 2.14919305 25.66015053 25
v 11.33794022 25.16367912 25
v 3.57457805 25.50068092 25
v 4.988873 25.26210022 25
v 12.65301037 24.52878952 25
v 6.38769102 24.94514084 25
v 7.76668978 24.55079079 25
v 13.93264961 23.82522011 25
v 9.12159348 24.08025932 25
v 15.17329025 23.05496025 25
v 10.44820023 23.53503036 25
v 11.74238014 22.91678047 25
v 16.37145042 22.22015953 25
v 13.00014019 22.22743034 25
v 17.52378082 21.32315063 25
v 14.2175703 21.46912003 25
v 18.62705994 20.3664608 25
v 15.39087963 20.64421082 25
v 19.67819023 19.35275078 25
v 16.51645088 19.75523949 25
v 20.67423058 18.28486061 25
v 17.59075928 18.80499077 25
v 18.61050987 17.79639053 25
v 21.61240005 17.16577911 25
v 19.5725193 16.73257065 25
v 22.49007034 15.9986496 25
v 20.47380066 15.6168499 25
v 23.30476952 14.7867403 25
v 21.31156921 14.4526701 25
v 24.05423927 13.53341961 25
v 22.08320999 13.24365997 25
v 24.73637009 12.24223042 25
v 22.78634071 11.9935503 25
v 25.34925079 10.91676044 25
v 23.41877937 10.7062397 25
v 25.89115906 9.56072998 25
v 23.97854996 9.38570499 25
v 26.36059952 8.17793846 25
v 24.46393967 8.03605461 25
v 26.75624084 6.77225113 25
v 24.87342072 6.6614728 25
v 27.07698059 5.34760618 25
v 25.20573997 5.26622295 25
v 27.32192993 3.90798998 25
v 25.45985985 3.85463595 25
v 27.49037933 2.45743489 25
v 25.63497925 2.43108892 25
v 27.58188057 1 25
v 25.73057938 1 25
v -8.61636734 26.22056961 0
v -0.71713912 25.74000931 0
v -9.99114037 25.72813988 0
v -6.38769102 24.94514084 0
v -7.76668978 24.55079079 0
v -12.65301037 24.52878952 0
v -2.14919305 25.66015053 0
v -3.57457805 25.50068092 0
v -11.33794022 25.16367912 0
v -4.988873 25.26210022 0
v -11.74238014 22.91678047 0
v -15.17329025 23.05496025 0
v -10.44820023 23.53503036 0
v -13.93264961 23.82522011 0
v -9.12159348 24.08025932 0
v -18.61050987 17.79639053 0
v -20.67423058 18.28486061 0
v -17.59075928 18.80499077 0
v -19.67819023 19.35275078 0
v -16.51645088 19.75523949 0
v -18.62705994 20.3664608 0
v -15.39087963 20.64421082 0
v -17.52378082 21.32315063 0
v -14.2175703 21.46912003 0
v -16.37145042 22.22015953 0
v -13.00014019 22.22743034 0
v -23.41877937 10.7062397 0
v -24.73637009 12.24223042 0
v -22.78634071 11.9935503 0
v -24.05423927 13.53341961 0
v -22.08320999 13.24365997 0
v -23.30476952 14.7867403 0
v -21.31156921 14.4526701 0
v -22.49007034 15.9986496 0
v -20.47380066 15.6168499 0
v -21.61240005 17.16577911 0
v -19.5725193 16.73257065 0
v -25.34925079 10.91676044 0
v -23.97854996 9.38570499 0
v -25.89115906 9.56072998 0
v -24.46393967 8.03605461 0
v -26.36059952 8.17793846 0
v -24.87342072 6.6614728 0
v -26.75624084 6.77225113 0
v -25.20573997 5.26622295 0
v -27.07698059 5.34760618 0
v -25.45985985 3.85463595 0
v -27.32192993 3.90798998 0
v -25.63497925 2.43108892 0
v -27.49037933 2.45743489 0
v -25.73057938 1 0
v -27.58188057 1 0
v -0 27.60000038 0
v 1.45979297 27.56137085 0
v -1.45979297 27.56137085 0
v 2.91549897 27.44557953 0
v -2.91549897 27.44557953 0
v 4.36304379 27.25296021 0
v -4.36304379 27.25296021 0
v 5.79837513 26.98405075 0
v -5.79837513 26.98405075 0
v 7.21747398 26.63960075 0
v -7.21747398 26.63960075 0
v 8.61636734 26.22056961 0
v 0.71713912 25.74000931 0
v 4.988873 25.26210022 0
v 3.57457805 25.50068092 0
v 11.33794022 25.16367912 0
v 2.14919305 25.66015053 0
v 9.99114037 25.72813988 0
v 7.76668978 24.55079079 0
v 6.38769102 24.94514084 0
v 12.65301037 24.52878952 0
v 11.74238014 22.91678047 0
v 10.44820023 23.53503036 0
v 15.17329025 23.05496025 0
v 9.12159348 24.08025932 0
v 13.93264961 23.82522011 0
v 18.61050987 17.79639053 0
v 17.59075928 18.80499077 0
v 20.67423058 18.28486061 0
v 16.51645088 19.75523949 0
v 19.67819023 19.35275078 0
v 15.39087963 20.64421082 0
v 18.62705994 20.3664608 0
v 14.2175703 21.46912003 0
v 17.52378082 21.32315063 0
v 13.00014019 22.22743034 0
v 16.37145042 22.22015953 0
v 25.34925079 10.91676044 0
v 22.78634071 11.9935503 0
v 24.73637009 12.24223042 0
v 22.08320999 13.24365997 0
v 24.05423927 13.53341961 0
v 21.31156921 14.4526701 0
v 23.30476952 14.7867403 0
v 20.47380066 15.6168499 0
v 22.49007034 15.9986496 0
v 19.5725193 16.73257065 0
v 21.61240005 17.16577911 0
v 23.41877937 10.7062397 0
v 25.89115906 9.56072998 0
v 23.97854996 9.38570499 0
v 26.36059952 8.17793846 0
v 24.46393967 8.03605461 0
v 26.75624084 6.77225113 0
v 24.87342072 6.6614728 0
v 27.07698059 5.34760618 0
v 25.20573997 5.26622295 0
v 27.32192993 3.90798998 0
v 25.45985985 3.85463595 0
v 27.49037933 2.45743489 0
v 25.63497925 2.43108892 0
v 27.58188057 1 0
v 25.73057938 1 0
vn 0 0 1
vn 0 0 1
vn -0 0 1
vn 0 0 1
vn -0 0 1
vn 0 0 1
vn -0 0 1
vn 0 0 1
vn -0 0 1
vn 0 0 1
vn -0 0 1
vn 0 0 1
vn 0 0 1
vn 0 0 1
vn 0 0 1
vn 0 0 -1
vn 0 0 -1
vn 0 -1 0
vn 0.05568 -0.99845 0
vn 0.11118 -0.9938 0
vn 0.11118 -0.9938 0
vn 0.16634 -0.98607 0
vn 0.22099 -0.97528 0
vn 0.22099 -0.97528 0
vn 0.27495 -0.96146 0
vn 0.32806 -0.94466 0
vn 0.32806 -0.94466 0
vn 0.38014 -0.92493 0
vn 0.38014 -0.92493 0
vn 0.43106 -0.90233 0
vn 0.48062 -0.87693 0
vn 0.48062 -0.87693 0
vn 0.5287 -0.84881 0
vn 0.5287 -0.84881 0
vn 0.57514 -0.81805 0
vn 0.57514 -0.81805 0
vn 0.6198 -0.78476 0
vn 0.6198 -0.78476 0
vn 0.66254 -0.74903 0
vn 0.66253 -0.74903 0
vn 0.70321 -0.71098 0
vn 0.70321 -0.71098 0
vn 0.74171 -0.67072 0
vn 0.7779 -0.62839 0
vn 0.7779 -0.62839 0
vn 0.81168 -0.5841 0
vn 0.84294 -0.538 0
vn 0.87159 -0.49023 0
vn 0.89753 -0.44095 0
vn 0.89753 -0.44095 0
vn 0.9207 -0.39028 0
vn 0.94099 -0.33842 0
vn 0.95838 -0.28549 0
vn 0.95838 -0.2855 0
vn 0.97279 -0.2317 0
vn 0.98418 -0.17718 0
vn 0.99252 -0.12209 0
vn 0.99252 -0.1221 0
vn 0.99778 -0.06665 0
vn 0.99778 -0.06665 0
vn 0.05568 -0.99845 0
vn -0.05568 -0.99845 0
vn -0.05568 -0.99845 0
vn -0.11118 -0.9938 0
vn -0.11118 -0.9938 0
vn -0.16634 -0.98607 0
vn -0.22099 -0.97528 0
vn -0.22099 -0.97528 0
vn -0.27495 -0.96146 0
vn -0.32806 -0.94466 0
vn -0.32806 -0.94466 0
vn -0.38014 -0.92493 0
vn -0.38014 -0.92493 0
vn -0.43106 -0.90233 0
vn -0.48062 -0.87693 0
vn -0.48062 -0.87693 0
vn -0.5287 -0.84881 0
vn -0.5287 -0.84881 0
vn -0.57514 -0.81805 0
vn -0.57514 -0.81805 0
vn -0.6198 -0.78476 0
vn -0.6198 -0.78476 0
vn -0.66254 -0.74903 0
vn -0.66253 -0.74903 0
vn -0.70321 -0.71098 0
vn -0.70321 -0.71098 0
vn -0.74171 -0.67072 0
vn -0.7779 -0.62839 0
vn -0.7779 -0.62839 0
vn -0.81168 -0.5841 0
vn -0.84294 -0.538 0
vn -0.87159 -0.49023 0
vn -0.89753 -0.44095 0
vn -0.89753 -0.44095 0
vn -0.9207 -0.39028 0
vn -0.94099 -0.33842 0
vn -0.95838 -0.28549 0
vn -0.95838 -0.2855 0
vn -0.97279 -0.2317 0
vn -0.98418 -0.17718 0
vn -0.99252 -0.12209 0
vn -0.99252 -0.1221 0
vn -0.99778 -0.06665 0
vn -0.99778 -0.06665 0
vn -0.99803 0.06266 0
vn -0.99804 0.06266 0
vn -0.99332 0.11535 0
vn -0.99332 0.11535 0
vn -0.98583 0.16774 0
vn -0.98583 0.16774 0
vn -0.97558 0.21964 0
vn -0.97558 0.21964 0
vn -0.9626 0.27093 0
vn -0.94692 0.32147 0
vn -0.94692 0.32147 0
vn -0.9286 0.37109 0
vn -0.90767 0.41969 0
vn -0.8842 0.46712 0
vn -0.88419 0.46712 0
vn -0.85825 0.51322 0
vn -0.82991 0.5579 0
vn -0.82991 0.5579 0
vn -0.79924 0.60102 0
vn -0.76633 0.64245 0
vn -0.73128 0.68208 0
vn -0.73128 0.68208 0
vn -0.69418 0.7198 0
vn -0.69418 0.7198 0
vn -0.65513 0.75552 0
vn -0.65513 0.75551 0
vn -0.61426 0.7891 0
vn -0.61426 0.7891 0
vn -0.57166 0.82049 0
vn -0.57166 0.82049 0
vn -0.52747 0.84958 0
vn -0.4818 0.87628 0
vn -0.4818 0.87628 0
vn -0.43477 0.90054 0
vn -0.43476 0.90054 0
vn -0.38654 0.92227 0
vn -0.38654 0.92227 0
vn -0.33721 0.94143 0
vn -0.28695 0.95795 0
vn -0.28695 0.95795 0
vn -0.23588 0.97178 0
vn -0.23588 0.97178 0
vn -0.18415 0.9829 0
vn -0.1319 0.99126 0
vn -0.1319 0.99126 0
vn -0.07929 0.99685 0
vn -0.07929 0.99685 0
vn -0.02645 0.99965 0
vn 0.02645 0.99965 0
vn 0.07929 0.99685 0
vn 0.07929 0.99685 0
vn 0.1319 0.99126 0
vn 0.1319 0.99126 0
vn 0.18415 0.9829 0
vn 0.23588 0.97178 0
vn 0.23588 0.97178 0
vn 0.28695 0.95795 0
vn 0.28695 0.95795 0
vn 0.33721 0.94143 0
vn 0.38654 0.92227 0
vn 0.38654 0.92227 0
vn 0.43476 0.90054 0
vn 0.43477 0.90054 0
vn 0.4818 0.87628 0
vn 0.4818 0.87628 0
vn 0.52747 0.84958 0
vn 0.57166 0.82049 0
vn 0.57166 0.82049 0
vn 0.61426 0.7891 0
vn 0.61426 0.7891 0
vn 0.65513 0.75551 0
vn 0.65513 0.75552 0
vn 0.69418 0.7198 0
vn 0.69418 0.7198 0
vn 0.73128 0.68208 0
vn 0.73128 0.68208 0
vn 0.76633 0.64245 0
vn 0.79924 0.60102 0
vn 0.82991 0.5579 0
vn 0.82991 0.5579 0
vn 0.85825 0.51322 0
vn 0.88419 0.46712 0
vn 0.8842 0.46712 0
vn 0.90767 0.41969 0
vn 0.9286 0.37109 0
vn 0.94692 0.32147 0
vn 0.94692 0.32147 0
vn 0.9626 0.27093 0
vn 0.97558 0.21964 0
vn 0.97558 0.21964 0
vn 0.98583 0.16774 0
vn 0.98583 0.16774 0
vn 0.99332 0.11535 0
vn 0.99332 0.11535 0
vn 0.99804 0.06266 0
vn 0.99803 0.06266 0
f 1//1 2//1 3//1
f 4//1 5//1 6//1
f 7//1 8//1 1//1
f 1//1 8//1 9//1
f 1//1 9//1 2//1
f 4//2 6//2 7//2
f 7//1 6//1 10//1
f 7//1 10//1 8//1
f 5//1 4//1 11//1
f 11//1 4//1 12//1
f 11//1 12//1 13//1
f 13//1 12//1 14//1
f 13//1 14//1 15//1
f 15//1 14//1 16//1
f 16//1 14//1 17//1
f 16//1 17//1 18//1
f 18//2 17//2 19//2
f 18//1 19//1 20//1
f 20//1 19//1 21//1
f 20//1 21//1 22//1
f 22//1 21//1 23//1
f 22//1 23//1 24//1
f 24//1 23//1 25//1
f 24//1 25//1 26//1
f 26//1 25//1 27//1
f 27//3 25//3 28//3
f 27//1 28//1 29//1
f 29//4 28//4 30//4
f 29//5 30//5 31//5
f 31//6 30//6 32//6
f 31//7 32//7 33//7
f 33//8 32//8 34//8
f 33//1 34//1 35//1
f 35//1 34//1 36//1
f 35//2 36//2 37//2
f 37//1 36//1 38//1
f 37//1 38//1 39//1
f 39//1 38//1 40//1
f 39//9 40//9 41//9
f 41//1 40//1 42//1
f 41//1 42//1 43//1
f 43//1 42//1 44//1
f 43//1 44//1 45//1
f 45//1 44//1 46//1
f 45//1 46//1 47//1
f 47//1 46//1 48//1
f 47//1 48//1 49//1
f 49//1 48//1 50//1
f 49//1 50//1 51//1
f 51//1 50//1 52//1
f 2//1 53//1 3//1
f 3//1 53//1 54//1
f 3//1 54//1 55//1
f 55//1 54//1 56//1
f 55//1 56//1 57//1
f 57//1 56//1 58//1
f 57//1 58//1 59//1
f 59//1 58//1 60//1
f 59//1 60//1 61//1
f 61//1 60//1 62//1
f 61//1 62//1 63//1
f 63//1 62//1 64//1
f 63//1 64//1 65//1
f 54//1 53//1 66//1
f 66//1 53//1 67//1
f 66//1 67//1 68//1
f 68//1 67//1 69//1
f 68//1 69//1 70//1
f 68//1 70//1 71//1
f 71//1 70//1 72//1
f 71//1 72//1 73//1
f 71//2 73//2 74//2
f 74//1 73//1 75//1
f 74//2 75//2 76//2
f 76//1 75//1 77//1
f 76//1 77//1 78//1
f 76//1 78//1 79//1
f 79//2 78//2 80//2
f 79//2 80//2 81//2
f 81//1 80//1 82//1
f 81//1 82//1 83//1
f 83//1 82//1 84//1
f 83//1 84//1 85//1
f 85//10 84//10 86//10
f 85//1 86//1 87//1
f 87//1 86//1 88//1
f 87//1 88//1 89//1
f 87//2 89//2 90//2
f 90//1 89//1 91//1
f 90//1 91//1 92//1
f 92//1 91//1 93//1
f 92//11 93//11 94//11
f 94//12 93//12 95//12
f 94//1 95//1 96//1
f 96//1 95//1 97//1
f 96//1 97//1 98//1
f 98//1 97//1 99//1
f 98//1 99//1 100//1
f 100//1 99//1 101//1
f 100//13 101//13 102//13
f 102//1 101//1 103//1
f 102//14 103//14 104//14
f 104//1 103//1 105//1
f 104//15 105//15 106//15
f 106//1 105//1 107//1
f 106//1 107//1 108//1
f 108//1 107//1 109//1
f 108//1 109//1 110//1
f 110//1 109//1 111//1
f 110//1 111//1 112//1
f 112//1 111//1 113//1
f 112//1 113//1 114//1
f 114//1 113//1 115//1
f 116//16 117//16 118//16
f 119//16 120//16 121//16
f 117//16 122//16 118//16
f 118//16 122//16 123//16
f 118//16 123//16 124//16
f 123//16 125//16 124//16
f 124//16 125//16 119//16
f 124//16 119//16 121//16
f 126//16 127//16 128//16
f 128//16 127//16 129//16
f 128//16 129//16 130//16
f 130//16 129//16 121//16
f 130//16 121//16 120//16
f 131//16 132//16 133//16
f 133//16 132//16 134//16
f 133//16 134//16 135//16
f 135//16 134//16 136//16
f 135//16 136//16 137//16
f 137//16 136//16 138//16
f 137//16 138//16 139//16
f 139//17 138//17 140//17
f 139//16 140//16 141//16
f 141//16 140//16 127//16
f 141//16 127//16 126//16
f 142//17 143//17 144//17
f 144//16 143//16 145//16
f 144//16 145//16 146//16
f 146//16 145//16 147//16
f 146//17 147//17 148//17
f 148//16 147//16 149//16
f 148//17 149//17 150//17
f 150//16 149//16 151//16
f 150//16 151//16 152//16
f 152//16 151//16 132//16
f 152//16 132//16 131//16
f 143//17 142//17 153//17
f 153//16 142//16 154//16
f 153//16 154//16 155//16
f 155//16 154//16 156//16
f 155//16 156//16 157//16
f 157//16 156//16 158//16
f 157//16 158//16 159//16
f 159//16 158//16 160//16
f 159//16 160//16 161//16
f 161//16 160//16 162//16
f 161//16 162//16 163//16
f 163//16 162//16 164//16
f 163//16 164//16 165//16
f 165//16 164//16 166//16
f 165//16 166//16 167//16
f 168//16 169//16 170//16
f 170//16 169//16 171//16
f 170//16 171//16 172//16
f 172//16 171//16 173//16
f 172//16 173//16 174//16
f 174//16 173//16 175//16
f 174//16 175//16 176//16
f 176//16 175//16 177//16
f 176//17 177//17 178//17
f 178//16 177//16 179//16
f 178//16 179//16 116//16
f 116//16 179//16 180//16
f 116//16 180//16 117//16
f 181//16 182//16 183//16
f 183//16 182//16 184//16
f 183//16 184//16 185//16
f 185//16 184//16 180//16
f 185//16 180//16 179//16
f 186//16 187//16 188//16
f 188//16 187//16 181//16
f 188//16 181//16 183//16
f 189//16 190//16 191//16
f 191//16 190//16 192//16
f 191//16 192//16 193//16
f 193//16 192//16 186//16
f 193//17 186//17 188//17
f 194//16 195//16 196//16
f 196//16 195//16 197//16
f 196//16 197//16 198//16
f 198//16 197//16 199//16
f 198//16 199//16 200//16
f 200//16 199//16 201//16
f 200//16 201//16 202//16
f 202//16 201//16 203//16
f 202//17 203//17 204//17
f 204//17 203//17 189//17
f 204//16 189//16 191//16
f 205//16 206//16 207//16
f 207//16 206//16 208//16
f 207//16 208//16 209//16
f 209//16 208//16 210//16
f 209//16 210//16 211//16
f 211//17 210//17 212//17
f 211//16 212//16 213//16
f 213//16 212//16 214//16
f 213//17 214//17 215//17
f 215//16 214//16 194//16
f 215//17 194//17 196//17
f 206//16 205//16 216//16
f 216//16 205//16 217//16
f 216//16 217//16 218//16
f 218//16 217//16 219//16
f 218//16 219//16 220//16
f 220//16 219//16 221//16
f 220//16 221//16 222//16
f 222//17 221//17 223//17
f 222//16 223//16 224//16
f 224//16 223//16 225//16
f 224//16 225//16 226//16
f 226//16 225//16 227//16
f 226//16 227//16 228//16
f 228//16 227//16 229//16
f 228//16 229//16 230//16
f 114//18 115//18 229//18
f 229//18 115//18 230//18
f 117//19 9//19 122//19
f 122//20 9//20 8//20
f 122//21 8//21 123//21
f 123//22 8//22 10//22
f 123//22 10//22 125//22
f 125//23 10//23 6//23
f 125//24 6//24 119//24
f 119//25 6//25 5//25
f 119//25 5//25 120//25
f 120//26 5//26 11//26
f 120//27 11//27 130//27
f 130//28 11//28 13//28
f 130//29 13//29 128//29
f 128//30 13//30 15//30
f 128//30 15//30 126//30
f 126//31 15//31 16//31
f 126//32 16//32 141//32
f 141//33 16//33 18//33
f 141//34 18//34 139//34
f 139//35 18//35 20//35
f 139//36 20//36 137//36
f 137//37 20//37 22//37
f 137//38 22//38 135//38
f 135//39 22//39 24//39
f 135//40 24//40 133//40
f 133//41 24//41 26//41
f 133//42 26//42 131//42
f 131//43 26//43 27//43
f 131//43 27//43 152//43
f 152//44 27//44 29//44
f 152//45 29//45 150//45
f 150//46 29//46 31//46
f 150//46 31//46 148//46
f 148//47 31//47 33//47
f 148//47 33//47 146//47
f 146//48 33//48 35//48
f 146//48 35//48 144//48
f 144//49 35//49 37//49
f 144//50 37//50 142//50
f 142//51 37//51 39//51
f 142//51 39//51 154//51
f 154//52 39//52 41//52
f 154//52 41//52 156//52
f 156//53 41//53 43//53
f 156//54 43//54 158//54
f 158//55 43//55 45//55
f 158//55 45//55 160//55
f 160//56 45//56 47//56
f 160//56 47//56 162//56
f 162//57 47//57 49//57
f 162//58 49//58 164//58
f 164//59 49//59 51//59
f 164//60 51//60 166//60
f 9//61 117//61 2//61
f 2//18 117//18 180//18
f 2//18 180//18 53//18
f 53//62 180//62 184//62
f 53//63 184//63 67//63
f 67//64 184//64 182//64
f 67//65 182//65 69//65
f 69//66 182//66 181//66
f 69//66 181//66 70//66
f 70//67 181//67 187//67
f 70//68 187//68 72//68
f 72//69 187//69 186//69
f 72//69 186//69 73//69
f 73//70 186//70 192//70
f 73//71 192//71 75//71
f 75//72 192//72 190//72
f 75//73 190//73 77//73
f 77//74 190//74 189//74
f 77//74 189//74 78//74
f 78//75 189//75 203//75
f 78//76 203//76 80//76
f 80//77 203//77 201//77
f 80//78 201//78 82//78
f 82//79 201//79 199//79
f 82//80 199//80 84//80
f 84//81 199//81 197//81
f 84//82 197//82 86//82
f 86//83 197//83 195//83
f 86//84 195//84 88//84
f 88//85 195//85 194//85
f 88//86 194//86 89//86
f 89//87 194//87 214//87
f 89//87 214//87 91//87
f 91//88 214//88 212//88
f 91//89 212//89 93//89
f 93//90 212//90 210//90
f 93//90 210//90 95//90
f 95//91 210//91 208//91
f 95//91 208//91 97//91
f 97//92 208//92 206//92
f 97//92 206//92 99//92
f 99//93 206//93 216//93
f 99//94 216//94 101//94
f 101//95 216//95 218//95
f 101//95 218//95 103//95
f 103//96 218//96 220//96
f 103//96 220//96 105//96
f 105//97 220//97 222//97
f 105//98 222//98 107//98
f 107//99 222//99 224//99
f 107//99 224//99 109//99
f 109//100 224//100 226//100
f 109//100 226//100 111//100
f 111//101 226//101 228//101
f 111//102 228//102 113//102
f 113//103 228//103 230//103
f 113//104 230//104 115//104
f 51//18 52//18 166//18
f 166//18 52//18 167//18
f 167//105 52//105 165//105
f 165//106 52//106 50//106
f 165//107 50//107 163//107
f 163//108 50//108 48//108
f 163//109 48//109 161//109
f 161//110 48//110 46//110
f 161//111 46//111 159//111
f 159//112 46//112 44//112
f 159//113 44//113 157//113
f 157//113 44//113 42//113
f 157//114 42//114 155//114
f 155//115 42//115 40//115
f 155//116 40//116 153//116
f 153//116 40//116 38//116
f 153//117 38//117 143//117
f 143//117 38//117 36//117
f 143//118 36//118 145//118
f 145//119 36//119 34//119
f 145//120 34//120 147//120
f 147//120 34//120 32//120
f 147//121 32//121 149//121
f 149//122 32//122 30//122
f 149//123 30//123 151//123
f 151//123 30//123 28//123
f 151//124 28//124 132//124
f 132//124 28//124 25//124
f 132//125 25//125 134//125
f 134//126 25//126 23//126
f 134//127 23//127 136//127
f 136//128 23//128 21//128
f 136//129 21//129 138//129
f 138//130 21//130 19//130
f 138//131 19//131 140//131
f 140//132 19//132 17//132
f 140//133 17//133 127//133
f 127//134 17//134 14//134
f 127//135 14//135 129//135
f 129//135 14//135 12//135
f 129//136 12//136 121//136
f 121//137 12//137 4//137
f 121//138 4//138 124//138
f 124//139 4//139 7//139
f 124//140 7//140 118//140
f 118//141 7//141 1//141
f 118//142 1//142 116//142
f 116//142 1//142 3//142
f 116//143 3//143 178//143
f 178//144 3//144 55//144
f 178//145 55//145 176//145
f 176//146 55//146 57//146
f 176//147 57//147 174//147
f 174//147 57//147 59//147
f 174//148 59//148 172//148
f 172//149 59//149 61//149
f 172//150 61//150 170//150
f 170//151 61//151 63//151
f 170//152 63//152 168//152
f 168//152 63//152 65//152
f 168//153 65//153 169//153
f 169//153 65//153 64//153
f 169//154 64//154 171//154
f 171//155 64//155 62//155
f 171//156 62//156 173//156
f 173//157 62//157 60//157
f 173//158 60//158 175//158
f 175//158 60//158 58//158
f 175//159 58//159 177//159
f 177//160 58//160 56//160
f 177//161 56//161 179//161
f 179//162 56//162 54//162
f 179//163 54//163 185//163
f 185//163 54//163 66//163
f 185//164 66//164 183//164
f 183//165 66//165 68//165
f 183//166 68//166 188//166
f 188//167 68//167 71//167
f 188//168 71//168 193//168
f 193//169 71//169 74//169
f 193//170 74//170 191//170
f 191//170 74//170 76//170
f 191//171 76//171 204//171
f 204//172 76//172 79//172
f 204//173 79//173 202//173
f 202//174 79//174 81//174
f 202//175 81//175 200//175
f 200//176 81//176 83//176
f 200//177 83//177 198//177
f 198//178 83//178 85//178
f 198//179 85//179 196//179
f 196//180 85//180 87//180
f 196//181 87//181 215//181
f 215//181 87//181 90//181
f 215//182 90//182 213//182
f 213//182 90//182 92//182
f 213//183 92//183 211//183
f 211//184 92//184 94//184
f 211//185 94//185 209//185
f 209//185 94//185 96//185
f 209//186 96//186 207//186
f 207//187 96//187 98//187
f 207//188 98//188 205//188
f 205//188 98//188 100//188
f 205//189 100//189 217//189
f 217//189 100//189 102//189
f 217//190 102//190 219//190
f 219//191 102//191 104//191
f 219//192 104//192 221//192
f 221//192 104//192 106//192
f 221//193 106//193 223//193
f 223//194 106//194 108//194
f 223//195 108//195 225//195
f 225//196 108//196 110//196
f 225//197 110//197 227//197
f 227//198 110//198 112//198
f 227//199 112//199 229//199
f 229//200 112//200 114//200
# Vertices: 230, normals: 200, texture coordinates: 0, faces: 456

