# File generated by ImageToStl.com - Free Image and 3D model conversion tools

o obj1
v 3.51095605 6.37367105 8
v 1.98904395 6.37367105 8
v 3.5 6.16346216 8
v 2 6.16346216 8
v 3.5 0.40518621 8
v 2 0.40518621 8
v 3.5 -0.63009 7.86370277
v 3.5 -0.69220293 4.34385586
v 3.5 -0.60403383 4.55133915
v 3.5 0.08141571 5.10348177
v 3.5 0.30291551 5.14544296
v 3.5 6 0
v 3.5 6 6.44475985
v 3.5 1.55062997 4.10227108
v 3.5 1.54857194 3.87684107
v 3.5 1.50257504 3.65614295
v 3.5 1.41440594 3.44866109
v 3.5 1.28745306 3.2623651
v 3.5 1.12659502 3.10441709
v 3.5 0.93801409 2.98088598
v 3.5 0.72895658 2.89651799
v 3.5 0.50745678 2.85455704
v 3.5 0.2820268 2.85661411
v 3.5 0.06132968 2.90261102
v 3.5 -0.1461532 2.99078012
v 3.5 -0.73819989 4.12315893
v 3.5 -1.12554801 7.69551802
v 3.5 -1.59481394 7.46410179
v 3.5 -2.02986002 7.1734128
v 3.5 -2.4232409 6.82842684
v 3.5 -2.7682271 6.4350462
v 3.5 -3.0589149 6
v 3.5 -3.29033208 5.53073406
v 3.5 -3.45851707 5.03527594
v 3.5 -3.56059289 4.52210522
v 3.5 -3.59481406 4
v 3.5 -0.74025732 3.89772892
v 3.5 -3.59481406 0
v 3.5 -0.33244839 3.117733
v 3.5 -0.49039671 3.27859092
v 3.5 -0.61392832 3.46717191
v 3.5 -0.69829589 3.676229
v 3.5 -0.1169186 7.96577883
v 3.5 -0.47708091 4.73763514
v 3.5 -0.316223 4.89558315
v 3.5 -0.1276418 5.01911402
v 3.5 0.52834558 5.14338589
v 3.5 0.74904269 5.09738922
v 3.5 0.95652562 5.00922012
v 3.5 1.14282095 4.882267
v 3.5 1.30076897 4.72140884
v 3.5 1.42430103 4.53282785
v 3.5 1.50866795 4.323771
v 2 6 6.44475985
v 2 -0.1276418 5.01911402
v 2 -0.1169186 7.96577883
v 2 0.08141571 5.10348177
v 2 -0.73819989 4.12315893
v 2 -1.12554801 7.69551802
v 2 -0.69220293 4.34385586
v 2 6 0
v 2 -3.59481406 0
v 2 0.93801409 2.98088598
v 2 1.12659502 3.10441709
v 2 1.28745306 3.2623651
v 2 1.41440594 3.44866109
v 2 1.50257504 3.65614295
v 2 1.54857194 3.87684107
v 2 1.55062997 4.10227108
v 2 1.50866795 4.323771
v 2 -3.59481406 4
v 2 -0.74025732 3.89772892
v 2 -0.69829589 3.676229
v 2 -0.61392832 3.46717191
v 2 -0.49039671 3.27859092
v 2 -0.33244839 3.117733
v 2 -0.1461532 2.99078012
v 2 0.06132968 2.90261102
v 2 0.2820268 2.85661411
v 2 0.50745678 2.85455704
v 2 0.72895658 2.89651799
v 2 1.42430103 4.53282785
v 2 1.30076897 4.72140884
v 2 1.14282095 4.882267
v 2 0.95652562 5.00922012
v 2 0.74904269 5.09738922
v 2 0.52834558 5.14338589
v 2 0.30291551 5.14544296
v 2 -0.63009 7.86370277
v 2 -0.316223 4.89558315
v 2 -0.47708091 4.73763514
v 2 -0.60403383 4.55133915
v 2 -3.56059289 4.52210522
v 2 -3.45851707 5.03527594
v 2 -3.29033208 5.53073406
v 2 -3.0589149 6
v 2 -2.7682271 6.4350462
v 2 -2.4232409 6.82842684
v 2 -2.02986002 7.1734128
v 2 -1.59481394 7.46410179
v 7 8.69999981 13
v 5.5 8 6.33994484
v 7 8 6.33994484
v 5.5 8.36271477 9.79094315
v -1.5 8.69999981 13
v 0 8.36271477 9.79094315
v -1.5 8 6.33994484
v 0 8 6.33994484
v -1.5 8 0
v 0 8 0
v 5.5 8 0
v 7 8 0
v -1.5 10 0
v 2.75 10 0
v 7 10 0
v 4.08578587 7.41421413 0
v 1.11114001 7.66293907 0
v 4.38886023 7.66293907 0
v 0.76536691 7.84775877 0
v 4.73463297 7.84775877 0
v 0.39018059 7.96157122 0
v 5.10981894 7.96157122 0
v 1.41421402 7.41421413 0
v 3.83706093 7.11113977 0
v 1.66293895 7.11113977 0
v 3.65224099 6.76536703 0
v 1.84775901 6.76536703 0
v 3.53842902 6.39018106 0
v 1.96157098 6.39018106 0
v -1.5 10 13
v 7 10 13
v 2.75 10 13
v 3.5564599 6.47185898 6.42003202
v 3.6808331 6.83104181 6.40120792
v 3.87079501 7.16003895 6.38396597
v 4.11947823 7.44712114 6.36891985
v 4.41802788 7.68206406 6.35660601
v 4.7558651 7.85641098 6.34746885
v 3.50227904 6.09544182 6.43975782
v 5.12093306 7.96374798 6.34184504
v 4.57359314 8.03962898 8.8933897
v 4.88631582 8.20261669 9.19070435
v 3.56239104 6.66407394 8.02119637
v 3.53160596 6.52013397 8.00537014
v 3.771348 7.19333076 8.17567635
v 3.65142798 6.93966293 8.08175755
v 4.12956285 7.67911577 8.48480701
v 3.99190497 7.5224762 8.36285496
v 3.87609696 7.36498117 8.26296139
v 4.27600908 7.8187871 8.61738014
v 5.20730877 8.31070518 9.50210667
v 1.50809395 7.5224762 8.362854
v 1.37043595 7.67911577 8.48480606
v 1.22398996 7.8187871 8.61737919
v 0.92640811 8.03962898 8.89339066
v 0.61368507 8.20261669 9.1907053
v 0.29269081 8.31070518 9.50210667
v 1.62390304 7.36498117 8.26296139
v 1.728652 7.19333076 8.17567635
v 1.84857094 6.93966293 8.08175755
v 1.937608 6.66407394 8.02119541
v 1.96839297 6.52013397 8.00537014
v 0.74413532 7.85641098 6.34747124
v 0.37906751 7.96374798 6.34184504
v 1.081972 7.68206406 6.35660791
v 1.38052201 7.44712114 6.36891985
v 1.81916702 6.83104181 6.40120602
v 1.62920499 7.16003895 6.38396502
v 1.94353998 6.47185898 6.42003107
v 1.99772096 6.09544182 6.43975782
vn 0 0 1
vn 1 -1E-05 0
vn 1 0 0
vn 1 -0 0
vn 1 0 0
vn 1 -0 0
vn 1 -0 0
vn 1 0 0
vn 1 -0 0
vn 1 0 0
vn 1 -0 0
vn 1 0 0
vn 1 0 0
vn 1 -0 0
vn 1 0 0
vn 1 1E-05 0
vn 1 -0 0
vn 1 0 0
vn 1 -0 0
vn 1 0 0
vn 1 0 0
vn 1 -0 0
vn 1 0 0
vn 1 -0 0
vn 1 -0 0
vn 1 -0 0
vn 1 0 0
vn 1 0 0
vn 1 -0 0
vn 1 0 0
vn 1 -0 0
vn 1 0 0
vn 1 -0 0
vn 1 -0 0
vn 1 0 0
vn 1 0 0
vn 1 -0 0
vn 1 0 0
vn -1 0 0
vn -1 0 0
vn 0 -0.99452 0.10453
vn -0 -0.99452 0.10453
vn 0 -0.99452 0.10453
vn 0 -0.99452 0.10453
vn 0 -0.99452 0.10453
vn 0 -0.99452 0.10453
vn 0 -1 0
vn 0 -1 -0
vn 0 0 -1
vn 0 0 -1
vn 0.95694 -0.29029 0.00101
vn 0.94494 -0.32725 -0.00086
vn 0.88192 -0.4714 0.0009
vn 0.86599 -0.50006 -0.00075
vn 0.77301 -0.63439 0.00077
vn 0.75583 -0.65477 -0.00062
vn 0.63439 -0.77301 0.00064
vn 0.61841 -0.78586 -0.00047
vn 0.4714 -0.88192 0.00049
vn 0.45859 -0.88865 -0.00032
vn 0.29029 -0.95694 0.00033
vn 0.98979 -0.14252 -0.00097
vn 0.99971 -0.02363 0.00453
vn 0.99518 -0.09802 0
vn 0.28208 -0.95939 -0.00017
vn 0.09802 -0.99518 0.00017
vn 0.0952 -0.99546 0
vn 0.45852 -0.88344 0.0964
vn 0.38857 -0.91663 0.09378
vn 0.28204 -0.95384 0.1032
vn 0.97716 -0.21138 0.02176
vn 0.98991 -0.14029 0.01979
vn 0.98975 -0.14143 0.01972
vn 0.99864 -0.05205 0.00373
vn 0.99971 -0.02374 0.0025
vn 0.89677 -0.44029 0.04415
vn 0.94852 -0.31456 0.03693
vn 0.94493 -0.32534 0.03556
vn 0.72067 -0.68952 0.07217
vn 0.78068 -0.6206 0.0734
vn 0.75584 -0.65113 0.06889
vn 0.83918 -0.5409 0.05663
vn 0.86588 -0.49696 0.05729
vn 0.54201 -0.8361 0.08461
vn 0.6455 -0.75886 0.08644
vn 0.61841 -0.78149 0.08274
vn 0.22899 -0.96827 0.10005
vn 0.09519 -0.98979 0.10606
vn 0.07337 -0.99184 0.10425
vn 0 -0.61432 0.78905
vn -0 -0.68844 0.7253
vn -0 -0.68844 0.7253
vn 0 -0.78082 0.62475
vn 0 -0.78082 0.62475
vn 0 -0.87688 0.4807
vn 0 -0.87688 0.48071
vn 0 -0.94471 0.32791
vn 0 -0.94471 0.32791
vn 0 -0.98417 0.17722
vn 0 -0.98417 0.17721
vn -0 -0.61432 0.78906
vn 0 -0.53561 0.84446
vn 0 -0.53561 0.84446
vn 0 -0.45327 0.89138
vn 0 -0.45327 0.89137
vn 0 -0.34721 0.93779
vn 0 -0.34721 0.93779
vn 0 -0.21463 0.97669
vn -0 -0.21463 0.9767
vn 0 -0.10929 0.99401
vn 0 -0.10929 0.99401
vn 0 -0.03664 0.99933
vn 0 -0.03664 0.99933
vn -0.28204 -0.95384 0.1032
vn -0.38857 -0.91663 0.09379
vn -0.45852 -0.88344 0.0964
vn -0.54201 -0.8361 0.08461
vn -0.22899 -0.96827 0.10005
vn -0.07069 -0.99175 0.10695
vn -0.0952 -0.99 0.10405
vn -0.72066 -0.68952 0.07217
vn -0.64917 -0.75644 0.07984
vn -0.61831 -0.7812 0.08609
vn -0.89677 -0.44028 0.04415
vn -0.8357 -0.54488 0.06862
vn -0.86602 -0.49732 0.0518
vn -0.78376 -0.61764 0.06515
vn -0.75572 -0.65082 0.07295
vn -0.97716 -0.21138 0.02176
vn -0.94879 -0.31405 0.03419
vn -0.94489 -0.32522 0.03755
vn -0.98975 -0.14142 0.01982
vn -0.98992 -0.14029 0.01951
vn -0.99971 -0.02394 -0.00129
vn -0.99863 -0.05205 0.00547
vn -0.29029 -0.95694 0.00033
vn -0.45859 -0.88865 -0.00032
vn -0.4714 -0.88192 0.00049
vn -0.61841 -0.78586 -0.00047
vn -0.63439 -0.77301 0.00064
vn -0.75583 -0.65477 -0.00062
vn -0.77301 -0.63439 0.00077
vn -0.86599 -0.50006 -0.00075
vn -0.88192 -0.4714 0.0009
vn -0.94494 -0.32725 -0.00086
vn -0.95694 -0.29029 0.00101
vn -0.28208 -0.95939 -0.00016
vn -0.0952 -0.99546 0.00017
vn -0.09802 -0.99518 0
vn -0.98979 -0.14252 -0.00097
vn -0.99518 -0.09802 0.0011
vn -0.99971 -0.02387 0
vn 0 -0.0654 0.99786
vn 0 -0.19509 0.98079
vn 0 -0.19509 0.98079
vn 0 -0.32144 0.94693
vn 0 -0.32144 0.94693
vn 0 -0.44229 0.89687
vn 0 -0.55557 0.83147
vn 0 -0.55557 0.83147
vn 0 -0.65935 0.75184
vn 0 -0.65935 0.75184
vn 0 -0.75184 0.65935
vn 0 -0.83147 0.55557
vn 0 -0.89687 0.44229
vn 0 -0.94693 0.32144
vn 0 -0.98079 0.19509
vn 0 -0.98079 0.19509
vn 0 -0.99786 0.0654
vn 0 0.56314 0.82636
vn 0 0.71353 0.70062
vn 0 0.71353 0.70062
vn 0 0.8365 0.54796
vn 0 0.8365 0.54796
vn 0 0.92733 0.37424
vn 0 0.92733 0.37424
vn 0 0.98252 0.18613
vn 0 0.98252 0.18613
vn 0 0.99996 -0.00913
vn 0 0.99996 -0.00913
vn 0 0.97896 -0.20403
vn 0 0.92035 -0.3911
vn 0 0.92035 -0.3911
vn 0 0.56314 0.82636
vn 0 0.3911 0.92035
vn 0 0.3911 0.92035
vn 0 0.20403 0.97896
vn 0 0.00912 0.99996
vn 0 0.00912 0.99996
vn 0 -0.18613 0.98253
vn 0 -0.37424 0.92733
vn 0 -0.37424 0.92733
vn 0 -0.54796 0.83651
vn 0 -0.54796 0.83651
vn 0 -0.70062 0.71353
vn 0 -0.70062 0.71353
vn 0 -0.82637 0.56313
vn 0 -0.82637 0.56313
vn 0 -0.56314 -0.82636
vn 0 -0.71353 -0.70062
vn 0 -0.71353 -0.70062
vn 0 -0.8365 -0.54796
vn 0 -0.92733 -0.37424
vn 0 -0.92733 -0.37423
vn 0 -0.98252 -0.18614
vn 0 -0.98252 -0.18613
vn 0 -0.99996 0.00913
vn 0 -0.97896 0.20403
vn 0 -0.97896 0.20403
vn 0 -0.92035 0.3911
vn 0 -0.3911 -0.92035
vn 0 -0.20403 -0.97896
vn 0 -0.20403 -0.97896
vn 0 -0.00912 -0.99996
vn 0 -0.00912 -0.99996
vn 0 0.18613 -0.98253
vn 0 0.37424 -0.92733
vn 0 0.54796 -0.83651
vn 0 0.70062 -0.71353
vn 0 0.82637 -0.56313
vn 0 0.82637 -0.56313
vn 0 1 0
f 1//1 2//1 3//1
f 3//1 2//1 4//1
f 3//1 4//1 5//1
f 5//1 4//1 6//1
f 7//2 8//2 9//2
f 10//3 11//3 5//3
f 12//4 13//4 14//4
f 12//5 14//5 15//5
f 12//6 15//6 16//6
f 12//7 16//7 17//7
f 12//8 17//8 18//8
f 12//9 18//9 19//9
f 12//10 19//10 20//10
f 12//11 20//11 21//11
f 12//12 21//12 22//12
f 12//13 22//13 23//13
f 12//14 23//14 24//14
f 12//15 24//15 25//15
f 26//16 8//16 7//16
f 26//17 7//17 27//17
f 26//18 27//18 28//18
f 26//19 28//19 29//19
f 26//3 29//3 30//3
f 26//20 30//20 31//20
f 26//21 31//21 32//21
f 26//22 32//22 33//22
f 26//23 33//23 34//23
f 26//3 34//3 35//3
f 26//15 35//15 36//15
f 26//15 36//15 37//15
f 38//3 12//3 25//3
f 38//24 25//24 39//24
f 38//25 39//25 40//25
f 38//26 40//26 41//26
f 38//27 41//27 42//27
f 38//28 42//28 37//28
f 38//29 37//29 36//29
f 43//30 7//30 9//30
f 43//31 9//31 44//31
f 43//32 44//32 45//32
f 43//33 45//33 46//33
f 43//3 46//3 10//3
f 43//3 10//3 5//3
f 3//3 5//3 11//3
f 3//34 11//34 47//34
f 3//35 47//35 48//35
f 3//3 48//3 49//3
f 3//3 49//3 50//3
f 3//15 50//15 51//15
f 3//36 51//36 52//36
f 3//3 52//3 53//3
f 3//37 53//37 14//37
f 3//38 14//38 13//38
f 4//39 54//39 6//39
f 55//39 56//39 57//39
f 58//39 59//39 60//39
f 61//40 62//40 63//40
f 61//39 63//39 64//39
f 61//40 64//40 65//40
f 61//39 65//39 66//39
f 61//39 66//39 67//39
f 61//39 67//39 68//39
f 61//39 68//39 69//39
f 61//39 69//39 70//39
f 61//39 70//39 6//39
f 61//39 6//39 54//39
f 62//39 71//39 72//39
f 62//39 72//39 73//39
f 62//39 73//39 74//39
f 62//39 74//39 75//39
f 62//39 75//39 76//39
f 62//39 76//39 77//39
f 62//40 77//40 78//40
f 62//39 78//39 79//39
f 62//40 79//40 80//40
f 62//39 80//39 81//39
f 62//40 81//40 63//40
f 6//39 70//39 82//39
f 6//40 82//40 83//40
f 6//39 83//39 84//39
f 6//39 84//39 85//39
f 6//39 85//39 86//39
f 6//40 86//40 87//40
f 6//39 87//39 88//39
f 6//39 88//39 57//39
f 6//39 57//39 56//39
f 89//39 56//39 55//39
f 89//39 55//39 90//39
f 89//39 90//39 91//39
f 89//40 91//40 92//40
f 89//39 92//39 60//39
f 89//39 60//39 59//39
f 71//40 93//40 94//40
f 71//39 94//39 95//39
f 71//39 95//39 96//39
f 71//39 96//39 97//39
f 71//39 97//39 98//39
f 71//39 98//39 99//39
f 71//39 99//39 100//39
f 71//39 100//39 59//39
f 71//39 59//39 58//39
f 71//39 58//39 72//39
f 101//41 102//41 103//41
f 102//42 101//42 104//42
f 104//43 101//43 105//43
f 104//44 105//44 106//44
f 106//45 105//45 107//45
f 106//46 107//46 108//46
f 109//47 110//47 107//47
f 107//48 110//48 108//48
f 111//47 112//47 102//47
f 102//47 112//47 103//47
f 109//49 113//49 114//49
f 115//49 112//49 111//49
f 115//49 111//49 110//49
f 115//49 110//49 109//49
f 115//49 109//49 114//49
f 116//49 117//49 118//49
f 118//49 117//49 119//49
f 118//49 119//49 120//49
f 120//49 119//49 121//49
f 120//49 121//49 122//49
f 122//49 121//49 110//49
f 122//49 110//49 111//49
f 117//49 116//49 123//49
f 123//49 116//49 124//49
f 123//49 124//49 125//49
f 125//49 124//49 126//49
f 125//49 126//49 127//49
f 127//49 126//49 128//49
f 127//49 128//49 129//49
f 129//49 128//49 12//49
f 129//50 12//50 61//50
f 61//49 12//49 38//49
f 61//49 38//49 62//49
f 113//39 109//39 130//39
f 130//40 109//40 107//40
f 130//39 107//39 105//39
f 101//1 131//1 105//1
f 105//1 131//1 132//1
f 105//1 132//1 130//1
f 101//3 103//3 131//3
f 131//15 103//15 112//15
f 131//3 112//3 115//3
f 133//51 128//51 126//51
f 126//52 134//52 133//52
f 134//53 126//53 124//53
f 124//54 135//54 134//54
f 135//55 124//55 116//55
f 116//56 136//56 135//56
f 136//57 116//57 118//57
f 118//58 137//58 136//58
f 137//59 118//59 120//59
f 120//60 138//60 137//60
f 138//61 120//61 122//61
f 133//62 139//62 128//62
f 128//63 139//63 13//63
f 128//64 13//64 12//64
f 138//65 122//65 140//65
f 140//66 122//66 111//66
f 140//67 111//67 102//67
f 138//68 141//68 137//68
f 138//69 142//69 141//69
f 142//70 138//70 140//70
f 143//71 144//71 133//71
f 133//72 144//72 1//72
f 133//73 1//73 139//73
f 139//74 1//74 3//74
f 139//75 3//75 13//75
f 145//76 146//76 134//76
f 134//77 146//77 143//77
f 134//78 143//78 133//78
f 147//79 148//79 136//79
f 136//80 148//80 149//80
f 136//81 149//81 135//81
f 135//82 149//82 145//82
f 135//83 145//83 134//83
f 141//84 150//84 137//84
f 137//85 150//85 147//85
f 137//86 147//86 136//86
f 142//87 140//87 151//87
f 151//88 140//88 102//88
f 151//89 102//89 104//89
f 152//90 147//90 153//90
f 153//91 147//91 150//91
f 153//92 150//92 154//92
f 154//93 150//93 141//93
f 154//94 141//94 155//94
f 155//95 141//95 142//95
f 155//96 142//96 156//96
f 156//97 142//97 151//97
f 156//98 151//98 157//98
f 157//99 151//99 104//99
f 157//100 104//100 106//100
f 147//101 152//101 148//101
f 148//102 152//102 158//102
f 148//103 158//103 149//103
f 149//104 158//104 159//104
f 149//105 159//105 145//105
f 145//106 159//106 160//106
f 145//107 160//107 146//107
f 146//108 160//108 161//108
f 146//109 161//109 143//109
f 143//110 161//110 162//110
f 143//111 162//111 144//111
f 144//112 162//112 2//112
f 144//113 2//113 1//113
f 163//114 156//114 164//114
f 155//115 156//115 163//115
f 165//116 155//116 163//116
f 165//117 154//117 155//117
f 156//118 157//118 164//118
f 164//119 157//119 106//119
f 164//120 106//120 108//120
f 152//121 153//121 166//121
f 166//122 153//122 154//122
f 166//123 154//123 165//123
f 160//124 159//124 167//124
f 167//125 159//125 158//125
f 167//126 158//126 168//126
f 168//127 158//127 152//127
f 168//128 152//128 166//128
f 162//129 161//129 169//129
f 169//130 161//130 160//130
f 169//131 160//131 167//131
f 169//132 170//132 162//132
f 162//133 170//133 2//133
f 170//134 54//134 2//134
f 2//135 54//135 4//135
f 119//136 163//136 121//136
f 165//137 163//137 119//137
f 117//138 165//138 119//138
f 166//139 165//139 117//139
f 123//140 166//140 117//140
f 168//141 166//141 123//141
f 125//142 168//142 123//142
f 167//143 168//143 125//143
f 127//144 167//144 125//144
f 169//145 167//145 127//145
f 129//146 169//146 127//146
f 163//147 164//147 121//147
f 121//148 164//148 108//148
f 121//149 108//149 110//149
f 169//150 129//150 170//150
f 170//151 129//151 61//151
f 170//152 61//152 54//152
f 38//47 36//47 62//47
f 62//47 36//47 71//47
f 5//153 6//153 43//153
f 43//153 6//153 56//153
f 43//154 56//154 7//154
f 7//155 56//155 89//155
f 7//156 89//156 27//156
f 27//157 89//157 59//157
f 27//158 59//158 28//158
f 28//158 59//158 100//158
f 28//159 100//159 29//159
f 29//160 100//160 99//160
f 29//161 99//161 30//161
f 30//162 99//162 98//162
f 30//163 98//163 31//163
f 31//163 98//163 97//163
f 31//164 97//164 32//164
f 32//164 97//164 96//164
f 32//165 96//165 33//165
f 33//165 96//165 95//165
f 33//166 95//166 34//166
f 34//166 95//166 94//166
f 34//167 94//167 35//167
f 35//168 94//168 93//168
f 35//169 93//169 36//169
f 36//169 93//169 71//169
f 25//170 76//170 39//170
f 39//171 76//171 75//171
f 39//172 75//172 40//172
f 40//173 75//173 74//173
f 40//174 74//174 41//174
f 41//175 74//175 73//175
f 41//176 73//176 42//176
f 42//177 73//177 72//177
f 42//178 72//178 37//178
f 37//179 72//179 58//179
f 37//180 58//180 26//180
f 26//181 58//181 60//181
f 26//181 60//181 8//181
f 8//182 60//182 92//182
f 8//183 92//183 9//183
f 76//184 25//184 77//184
f 77//185 25//185 24//185
f 77//186 24//186 78//186
f 78//187 24//187 23//187
f 78//187 23//187 79//187
f 79//188 23//188 22//188
f 79//189 22//189 80//189
f 80//190 22//190 21//190
f 80//190 21//190 81//190
f 81//191 21//191 20//191
f 81//192 20//192 63//192
f 63//193 20//193 19//193
f 63//194 19//194 64//194
f 64//195 19//195 18//195
f 64//196 18//196 65//196
f 65//197 18//197 17//197
f 65//198 17//198 66//198
f 49//199 84//199 50//199
f 50//200 84//200 83//200
f 50//201 83//201 51//201
f 51//202 83//202 82//202
f 51//202 82//202 52//202
f 52//203 82//203 70//203
f 52//204 70//204 53//204
f 53//205 70//205 69//205
f 53//206 69//206 14//206
f 14//207 69//207 68//207
f 14//207 68//207 15//207
f 15//208 68//208 67//208
f 15//209 67//209 16//209
f 16//210 67//210 66//210
f 16//210 66//210 17//210
f 84//199 49//199 85//199
f 85//211 49//211 48//211
f 85//211 48//211 86//211
f 86//212 48//212 47//212
f 86//213 47//213 87//213
f 87//214 47//214 11//214
f 87//215 11//215 88//215
f 88//216 11//216 10//216
f 88//216 10//216 57//216
f 57//217 10//217 46//217
f 57//217 46//217 55//217
f 55//218 46//218 45//218
f 55//218 45//218 90//218
f 90//219 45//219 44//219
f 90//219 44//219 91//219
f 91//220 44//220 9//220
f 91//221 9//221 92//221
f 114//222 132//222 115//222
f 115//222 132//222 131//222
f 113//222 130//222 114//222
f 114//222 130//222 132//222
# Vertices: 170, normals: 222, texture coordinates: 0, faces: 340

