# File generated by ImageToStl.com - Free Image and 3D model conversion tools

o obj1
v -13.05375957 -6.58448505 0
v -14.90653992 -6.78405523 0
v -13.0884304 -6.76746321 0
v -14.83370018 -6.95545387 0
v -13.15812016 -6.94016218 0
v -14.72883034 -7.1093502 0
v -13.26016998 -7.09594679 0
v -14.59595013 -7.23983002 0
v -13.3906498 -7.22882891 0
v -14.4401598 -7.34187698 0
v -13.54454994 -7.33370399 0
v -14.26745987 -7.41157198 0
v -13.71594048 -7.40653896 0
v -14.08448029 -7.44623613 0
v -13.89826012 -7.44453621 0
v -14.94454002 -6.60173988 0
v -13.05545998 -6.39826012 0
v -14.94624043 -6.41551495 0
v -13.09346008 -6.21594477 0
v -14.9115696 -6.23253679 0
v -13.16629982 -6.04454613 0
v -14.84187984 -6.05983782 0
v -13.27116966 -5.8906498 0
v -14.73983002 -5.90405321 0
v -13.40404987 -5.76016998 0
v -14.6093502 -5.77117109 0
v -13.5598402 -5.65812302 0
v -14.45545006 -5.66629601 0
v -13.73254013 -5.58842802 0
v -14.28405952 -5.59346104 0
v -13.91551971 -5.55376387 0
v -14.10173988 -5.55546379 0
v -27.69001007 -3.33809996 -1.5
v -27.69001007 -9.7958746 -1.5
v -27.69001007 -3.33809996 0
v -27.69001007 -9.7958746 0
v -7.83253098 -0 -1.5
v -7.83253098 -0 0
v -7.83253098 -13 -1.5
v -7.83253098 -13 0
v -13.3906498 -7.22882891 6
v -13.26016998 -7.09594679 6
v -13.15812016 -6.94016218 6
v -13.0884304 -6.76746321 6
v -13.05375957 -6.58448505 6
v -13.05545998 -6.39826012 6
v -13.09346008 -6.21594477 6
v -13.16629982 -6.04454613 6
v -13.54454994 -7.33370399 6
v -13.71594048 -7.40653896 6
v -13.89826012 -7.44453621 6
v -14.08448029 -7.44623613 6
v -14.26745987 -7.41157198 6
v -14.4401598 -7.34187698 6
v -14.59595013 -7.23983002 6
v -14.72883034 -7.1093502 6
v -14.83370018 -6.95545387 6
v -14.6093502 -5.77117109 6
v -14.73983002 -5.90405321 6
v -14.84187984 -6.05983782 6
v -14.9115696 -6.23253679 6
v -14.94624043 -6.41551495 6
v -14.94454002 -6.60173988 6
v -14.90653992 -6.78405523 6
v -14.45545006 -5.66629601 6
v -14.28405952 -5.59346104 6
v -14.10173988 -5.55546379 6
v -13.91551971 -5.55376387 6
v -13.73254013 -5.58842802 6
v -13.5598402 -5.65812302 6
v -13.40404987 -5.76016998 6
v -13.27116966 -5.8906498 6
v -11.5 -14 6
v -17.5 -12.5262804 6
v -17.5 -0.60769522 6
v -12 -14 6
v -11.5 1 6
v -11.5 1 -0
v -11.5 -14 0
v -11.5 1 -1.5
v -17.5 -0.60769522 -0
v -17.5 -12.5262804 0
v -12 -14 -1.5
v 13.54454994 -7.33370399 6
v 13.3906498 -7.22882891 -0.5
v 13.3906498 -7.22882891 6
v 13.26016998 -7.09594679 -0.5
v 13.26016998 -7.09594679 6
v 13.15812016 -6.94016218 -0.5
v 13.15812016 -6.94016218 6
v 13.0884304 -6.76746321 -0.5
v 13.0884304 -6.76746321 6
v 13.05375957 -6.58448505 -0.5
v 13.05375957 -6.58448505 6
v 13.05545998 -6.39826012 -0.5
v 13.05545998 -6.39826012 6
v 13.09346008 -6.21594477 -0.5
v 13.09346008 -6.21594477 6
v 13.16629982 -6.04454613 -0.5
v 13.16629982 -6.04454613 6
v 13.54454994 -7.33370399 -0.5
v 13.71594048 -7.40653896 6
v 13.71594048 -7.40653896 -0.5
v 13.89826012 -7.44453621 6
v 13.89826012 -7.44453621 -0.5
v 14.08448029 -7.44623613 6
v 14.08448029 -7.44623613 -0.5
v 14.26745987 -7.41157198 6
v 14.26745987 -7.41157198 -0.5
v 14.4401598 -7.34187698 6
v 14.4401598 -7.34187698 -0.5
v 14.59595013 -7.23983002 6
v 14.59595013 -7.23983002 -0.5
v 14.72883034 -7.1093502 6
v 14.72883034 -7.1093502 -0.5
v 14.83370018 -6.95545387 6
v 14.83370018 -6.95545387 -0.5
v 14.45545006 -5.66629601 6
v 14.6093502 -5.77117109 -0.5
v 14.6093502 -5.77117109 6
v 14.73983002 -5.90405321 -0.5
v 14.73983002 -5.90405321 6
v 14.84187984 -6.05983782 -0.5
v 14.84187984 -6.05983782 6
v 14.9115696 -6.23253679 -0.5
v 14.9115696 -6.23253679 6
v 14.94624043 -6.41551495 -0.5
v 14.94624043 -6.41551495 6
v 14.94454002 -6.60173988 -0.5
v 14.94454002 -6.60173988 6
v 14.90653992 -6.78405523 -0.5
v 14.90653992 -6.78405523 6
v 14.45545006 -5.66629601 -0.5
v 14.28405952 -5.59346104 6
v 14.28405952 -5.59346104 -0.5
v 14.10173988 -5.55546379 6
v 14.10173988 -5.55546379 -0.5
v 13.91551971 -5.55376387 6
v 13.91551971 -5.55376387 -0.5
v 13.73254013 -5.58842802 6
v 13.73254013 -5.58842802 -0.5
v 13.5598402 -5.65812302 6
v 13.5598402 -5.65812302 -0.5
v 13.40404987 -5.76016998 6
v 13.40404987 -5.76016998 -0.5
v 13.27116966 -5.8906498 6
v 13.27116966 -5.8906498 -0.5
v 11.5 -14 6
v 12 -14 6
v 11.5 1 6
v 17.5 -12.5262804 6
v 17.5 -0.60769522 6
v 11.5 1 -0
v 11.5 -0 0
v 11.5 -13 0
v 11.5 -14 0
v 11.5 -13 -1.5
v 11.5 -0 -1.5
v 19.5 -1.14359403 0
v 19.5 -1.14359403 -1.5
v 17.5 -0.60769522 -0
v 11.5 1 -1.5
v 17.5 -12.5262804 0
v 19.5 -11.99038029 0
v 19.5 -11.99038029 -1.5
v 12 -14 -1.5
vn -0 0 1
vn -0 0 1
vn 0 0 1
vn 0 -0 1
vn 0 0 1
vn -0 0 1
vn -0 0 1
vn -0 0 1
vn 0 0 1
vn 0 0 1
vn 0 0 1
vn 0 0 1
vn 0 0 1
vn 0 0 1
vn 0 0 1
vn 0 0 1
vn 0 0 1
vn 0 0 1
vn 0 -0 1
vn -0 0 1
vn -0 0 1
vn -0 0 1
vn 0 0 1
vn -0 0 1
vn -0 0 1
vn 0 0 1
vn 0 0 1
vn 0 0 1
vn 0 0 1
vn -0 0 1
vn -1 0 0
vn 1 0 0
vn 1 0 0
vn -0.56313 0.82637 0
vn -0.71353 0.70063 0
vn -0.8365 0.54797 0
vn -0.8365 0.54796 0
vn -0.92734 0.37421 0
vn -0.92734 0.37422 0
vn -0.98252 0.18617 0
vn -0.99996 -0.00912 0
vn -0.99996 -0.00915 0
vn -0.97896 -0.20404 0
vn -0.92034 -0.39112 0
vn -0.39112 0.92034 0
vn -0.20402 0.97897 0
vn -0.20403 0.97896 0
vn -0.00913 0.99996 0
vn 0.18613 0.98252 0
vn 0.18613 0.98252 0
vn 0.37424 0.92733 0
vn 0.37423 0.92733 0
vn 0.54794 0.83652 0
vn 0.70064 0.71352 0
vn 0.70062 0.71353 0
vn 0.82638 0.56311 0
vn 0.56313 -0.82637 0
vn 0.71353 -0.70063 0
vn 0.8365 -0.54797 0
vn 0.8365 -0.54796 0
vn 0.92734 -0.37421 0
vn 0.92734 -0.37422 0
vn 0.98252 -0.18617 0
vn 0.99996 0.00912 0
vn 0.99996 0.00915 0
vn 0.97896 0.20404 0
vn 0.92034 0.39112 0
vn 0.39112 -0.92034 0
vn 0.20402 -0.97897 0
vn 0.20403 -0.97896 0
vn 0.00913 -0.99996 0
vn -0.18613 -0.98252 0
vn -0.18613 -0.98252 0
vn -0.37424 -0.92733 0
vn -0.37423 -0.92733 0
vn -0.54794 -0.83652 0
vn -0.70064 -0.71352 0
vn -0.70062 -0.71353 0
vn -0.82638 -0.56311 0
vn 1E-05 0 1
vn 3E-05 0 1
vn -0 0 1
vn 0 0 1
vn 0 0 1
vn -0 0 1
vn -0 0 1
vn 0 0 1
vn -0 0 1
vn -1E-05 0 1
vn -1E-05 0 1
vn 0 0 1
vn 0 0 1
vn 0 0 1
vn -0 0 1
vn 0 0 1
vn -0 0 1
vn 0 0 1
vn -0 0 1
vn -0 0 1
vn 0 0 1
vn -1E-05 0 1
vn -0.25882 0.96593 0
vn -0.25882 0.96593 0
vn -0.25882 0.96593 0
vn -0.25882 -0.96593 0
vn -0.25882 -0.96593 0
vn -0.25882 -0.96593 0
vn 0 0 1
vn 0 0 1
vn 0.56313 0.82637 0
vn 0.71353 0.70063 0
vn 0.71352 0.70063 0
vn 0.8365 0.54797 0
vn 0.8365 0.54796 0
vn 0.92735 0.37421 0
vn 0.92734 0.37422 0
vn 0.98252 0.18618 0
vn 0.98252 0.18617 0
vn 0.99996 -0.00913 0
vn 0.99996 -0.00914 0
vn 0.97896 -0.20405 0
vn 0.97896 -0.20404 0
vn 0.92034 -0.39112 0
vn 0.92034 -0.39111 0
vn 0.39111 0.92034 0
vn 0.39112 0.92034 0
vn 0.20402 0.97897 0
vn 0.20403 0.97897 0
vn 0.00913 0.99996 0
vn 0.00913 0.99996 0
vn -0.18613 0.98252 0
vn -0.18613 0.98252 0
vn -0.37424 0.92733 0
vn -0.37423 0.92733 0
vn -0.54794 0.83652 0
vn -0.70063 0.71352 0
vn -0.82638 0.56312 0
vn -0.56313 -0.82637 0
vn -0.71353 -0.70063 0
vn -0.71352 -0.70063 0
vn -0.8365 -0.54797 0
vn -0.8365 -0.54796 0
vn -0.92735 -0.37421 0
vn -0.92734 -0.37422 0
vn -0.98252 -0.18618 0
vn -0.98252 -0.18617 0
vn -0.99996 0.00913 0
vn -0.99996 0.00914 0
vn -0.97896 0.20405 0
vn -0.97896 0.20404 0
vn -0.92034 0.39112 0
vn -0.92034 0.39111 0
vn -0.39111 -0.92034 0
vn -0.39112 -0.92034 0
vn -0.20402 -0.97897 0
vn -0.20403 -0.97897 0
vn -0.00913 -0.99996 0
vn -0.00913 -0.99996 0
vn 0.18613 -0.98252 0
vn 0.18613 -0.98252 0
vn 0.37424 -0.92733 0
vn 0.37423 -0.92733 0
vn 0.54794 -0.83652 0
vn 0.70063 -0.71352 0
vn 0.82638 -0.56312 0
vn -1E-05 0 1
vn -0 0 1
vn 0 0 1
vn 0 0 1
vn -0 0 1
vn -0 0 1
vn 0 0 1
vn 1E-05 0 1
vn -0 0 1
vn 0 0 1
vn 0 0 1
vn -0 0 1
vn -0 0 1
vn 0 0 1
vn -0 0 1
vn -0 0 1
vn 1E-05 0 1
vn 1E-05 0 1
vn 0 0 1
vn -0 0 1
vn 0 0 1
vn 0 0 1
vn -1 -0 0
vn -1 -0 0
vn -1 0 0
vn -1 0 0
vn 0.25882 0.96593 0
vn 0.25882 0.96593 -0
vn 0.25882 0.96593 0
vn 0.25882 -0.96593 0
vn 0.25882 -0.96593 -0
vn 0.25882 -0.96593 0
vn 0 -1 0
vn 0 0 1
vn 0 0 1
vn -0 0 1
vn -0 0 1
vn 0 -0 1
vn 0 -0 1
vn 0 1 0
vn 0 0 -1
vn 0 0 -1
vn -0 0 -1
vn 1 0 0
vn 1 -0 0
vn -0 0 1
vn -0 0 1
vn 0 -1 -0
vn 0 -1 -0
f 1//1 2//1 3//1
f 3//2 2//2 4//2
f 3//3 4//3 5//3
f 5//4 4//4 6//4
f 5//5 6//5 7//5
f 7//6 6//6 8//6
f 7//7 8//7 9//7
f 9//8 8//8 10//8
f 9//9 10//9 11//9
f 11//10 10//10 12//10
f 11//11 12//11 13//11
f 13//12 12//12 14//12
f 13//13 14//13 15//13
f 2//14 1//14 16//14
f 16//15 1//15 17//15
f 16//16 17//16 18//16
f 18//17 17//17 19//17
f 18//18 19//18 20//18
f 20//19 19//19 21//19
f 20//20 21//20 22//20
f 22//21 21//21 23//21
f 22//22 23//22 24//22
f 24//23 23//23 25//23
f 24//24 25//24 26//24
f 26//25 25//25 27//25
f 26//26 27//26 28//26
f 28//27 27//27 29//27
f 28//28 29//28 30//28
f 30//29 29//29 31//29
f 30//30 31//30 32//30
f 33//31 34//31 35//31
f 35//31 34//31 36//31
f 37//32 38//32 39//32
f 39//33 38//33 40//33
f 11//34 41//34 9//34
f 9//35 41//35 42//35
f 9//35 42//35 7//35
f 7//36 42//36 43//36
f 7//37 43//37 5//37
f 5//38 43//38 44//38
f 5//39 44//39 3//39
f 3//40 44//40 45//40
f 3//40 45//40 1//40
f 1//41 45//41 46//41
f 1//42 46//42 17//42
f 17//43 46//43 47//43
f 17//43 47//43 19//43
f 19//44 47//44 48//44
f 19//44 48//44 21//44
f 41//34 11//34 49//34
f 49//45 11//45 13//45
f 49//45 13//45 50//45
f 50//46 13//46 15//46
f 50//47 15//47 51//47
f 51//48 15//48 14//48
f 51//48 14//48 52//48
f 52//49 14//49 12//49
f 52//50 12//50 53//50
f 53//51 12//51 10//51
f 53//52 10//52 54//52
f 54//53 10//53 8//53
f 54//53 8//53 55//53
f 55//54 8//54 6//54
f 55//55 6//55 56//55
f 56//56 6//56 4//56
f 56//56 4//56 57//56
f 28//57 58//57 26//57
f 26//58 58//58 59//58
f 26//58 59//58 24//58
f 24//59 59//59 60//59
f 24//60 60//60 22//60
f 22//61 60//61 61//61
f 22//62 61//62 20//62
f 20//63 61//63 62//63
f 20//63 62//63 18//63
f 18//64 62//64 63//64
f 18//65 63//65 16//65
f 16//66 63//66 64//66
f 16//66 64//66 2//66
f 2//67 64//67 57//67
f 2//67 57//67 4//67
f 58//57 28//57 65//57
f 65//68 28//68 30//68
f 65//68 30//68 66//68
f 66//69 30//69 32//69
f 66//70 32//70 67//70
f 67//71 32//71 31//71
f 67//71 31//71 68//71
f 68//72 31//72 29//72
f 68//73 29//73 69//73
f 69//74 29//74 27//74
f 69//75 27//75 70//75
f 70//76 27//76 25//76
f 70//76 25//76 71//76
f 71//77 25//77 23//77
f 71//78 23//78 72//78
f 72//79 23//79 21//79
f 72//79 21//79 48//79
f 45//80 44//80 73//80
f 74//81 42//81 41//81
f 74//82 41//82 49//82
f 74//83 49//83 50//83
f 74//83 50//83 51//83
f 74//84 51//84 52//84
f 74//83 52//83 53//83
f 74//85 53//85 54//85
f 74//83 54//83 55//83
f 74//86 55//86 56//86
f 74//83 56//83 57//83
f 74//87 57//87 64//87
f 74//88 64//88 75//88
f 76//83 73//83 44//83
f 76//83 44//83 43//83
f 76//83 43//83 42//83
f 76//83 42//83 74//83
f 75//89 64//89 63//89
f 75//90 63//90 62//90
f 75//91 62//91 61//91
f 75//83 61//83 60//83
f 75//92 60//92 59//92
f 75//83 59//83 58//83
f 75//93 58//93 65//93
f 75//94 65//94 66//94
f 75//95 66//95 67//95
f 75//96 67//96 68//96
f 75//97 68//97 77//97
f 77//92 68//92 69//92
f 77//98 69//98 70//98
f 77//83 70//83 71//83
f 77//83 71//83 72//83
f 77//92 72//92 48//92
f 77//99 48//99 47//99
f 77//100 47//100 46//100
f 77//101 46//101 45//101
f 77//83 45//83 73//83
f 78//32 77//32 79//32
f 79//32 77//32 73//32
f 75//102 77//102 78//102
f 80//103 33//103 35//103
f 80//104 35//104 81//104
f 80//102 81//102 75//102
f 80//102 75//102 78//102
f 82//31 74//31 81//31
f 81//31 74//31 75//31
f 36//105 34//105 82//105
f 82//106 34//106 83//106
f 82//107 83//107 74//107
f 74//107 83//107 76//107
f 35//108 36//108 81//108
f 81//109 36//109 82//109
f 84//110 85//110 86//110
f 86//111 85//111 87//111
f 86//112 87//112 88//112
f 88//113 87//113 89//113
f 88//114 89//114 90//114
f 90//115 89//115 91//115
f 90//116 91//116 92//116
f 92//117 91//117 93//117
f 92//118 93//118 94//118
f 94//119 93//119 95//119
f 94//120 95//120 96//120
f 96//121 95//121 97//121
f 96//122 97//122 98//122
f 98//123 97//123 99//123
f 98//124 99//124 100//124
f 85//110 84//110 101//110
f 101//125 84//125 102//125
f 101//126 102//126 103//126
f 103//127 102//127 104//127
f 103//128 104//128 105//128
f 105//129 104//129 106//129
f 105//130 106//130 107//130
f 107//131 106//131 108//131
f 107//132 108//132 109//132
f 109//133 108//133 110//133
f 109//134 110//134 111//134
f 111//135 110//135 112//135
f 111//135 112//135 113//135
f 113//136 112//136 114//136
f 113//136 114//136 115//136
f 115//137 114//137 116//137
f 115//137 116//137 117//137
f 118//138 119//138 120//138
f 120//139 119//139 121//139
f 120//140 121//140 122//140
f 122//141 121//141 123//141
f 122//142 123//142 124//142
f 124//143 123//143 125//143
f 124//144 125//144 126//144
f 126//145 125//145 127//145
f 126//146 127//146 128//146
f 128//147 127//147 129//147
f 128//148 129//148 130//148
f 130//149 129//149 131//149
f 130//150 131//150 132//150
f 132//151 131//151 117//151
f 132//152 117//152 116//152
f 119//138 118//138 133//138
f 133//153 118//153 134//153
f 133//154 134//154 135//154
f 135//155 134//155 136//155
f 135//156 136//156 137//156
f 137//157 136//157 138//157
f 137//158 138//158 139//158
f 139//159 138//159 140//159
f 139//160 140//160 141//160
f 141//161 140//161 142//161
f 141//162 142//162 143//162
f 143//163 142//163 144//163
f 143//163 144//163 145//163
f 145//164 144//164 146//164
f 145//164 146//164 147//164
f 147//165 146//165 100//165
f 147//165 100//165 99//165
f 148//83 149//83 92//83
f 148//166 92//166 94//166
f 148//83 94//83 150//83
f 149//167 151//167 106//167
f 149//168 106//168 104//168
f 149//169 104//169 102//169
f 149//170 102//170 84//170
f 149//171 84//171 86//171
f 149//172 86//172 88//172
f 149//83 88//83 90//83
f 149//83 90//83 92//83
f 150//173 94//173 96//173
f 150//174 96//174 98//174
f 150//175 98//175 100//175
f 150//92 100//92 146//92
f 150//83 146//83 144//83
f 150//83 144//83 142//83
f 150//176 142//176 140//176
f 150//92 140//92 138//92
f 150//177 138//177 136//177
f 150//83 136//83 152//83
f 152//178 136//178 134//178
f 152//179 134//179 118//179
f 152//180 118//180 120//180
f 152//83 120//83 122//83
f 152//92 122//92 124//92
f 152//83 124//83 126//83
f 152//181 126//181 128//181
f 152//182 128//182 130//182
f 152//183 130//183 132//183
f 151//184 152//184 132//184
f 151//185 132//185 116//185
f 151//83 116//83 114//83
f 151//186 114//186 112//186
f 151//83 112//83 110//83
f 151//187 110//187 108//187
f 151//83 108//83 106//83
f 148//31 150//31 153//31
f 148//188 153//188 154//188
f 148//189 154//189 155//189
f 148//190 155//190 156//190
f 157//31 155//31 158//31
f 158//191 155//191 154//191
f 159//192 160//192 161//192
f 161//193 160//193 162//193
f 161//194 162//194 152//194
f 152//194 162//194 153//194
f 152//194 153//194 150//194
f 163//32 161//32 151//32
f 151//32 161//32 152//32
f 164//195 163//195 165//195
f 165//196 163//196 166//196
f 163//197 151//197 166//197
f 166//197 151//197 149//197
f 149//198 148//198 166//198
f 166//198 148//198 156//198
f 166//198 156//198 83//198
f 83//198 156//198 79//198
f 83//198 79//198 76//198
f 76//198 79//198 73//198
f 78//199 154//199 153//199
f 154//200 78//200 38//200
f 38//201 78//201 79//201
f 38//202 79//202 40//202
f 40//203 79//203 156//203
f 40//204 156//204 155//204
f 157//205 39//205 155//205
f 155//205 39//205 40//205
f 80//206 162//206 37//206
f 162//206 158//206 37//206
f 39//206 83//206 34//206
f 83//206 39//206 166//206
f 166//206 39//206 157//206
f 166//206 157//206 165//206
f 39//206 34//206 37//206
f 37//206 34//206 33//206
f 37//206 33//206 80//206
f 165//207 157//207 160//207
f 160//206 157//206 158//206
f 160//208 158//208 162//208
f 160//209 159//209 165//209
f 165//210 159//210 164//210
f 161//211 163//211 159//211
f 159//212 163//212 164//212
f 162//205 80//205 153//205
f 153//205 80//205 78//205
f 37//213 158//213 38//213
f 38//214 158//214 154//214
f 129//83 91//83 131//83
f 131//83 91//83 89//83
f 131//83 89//83 117//83
f 117//83 89//83 87//83
f 117//83 87//83 115//83
f 115//83 87//83 85//83
f 115//83 85//83 113//83
f 113//92 85//92 101//92
f 113//83 101//83 111//83
f 111//83 101//83 103//83
f 111//83 103//83 109//83
f 109//92 103//92 105//92
f 109//92 105//92 107//92
f 91//83 129//83 93//83
f 93//83 129//83 127//83
f 93//83 127//83 95//83
f 95//83 127//83 125//83
f 95//83 125//83 97//83
f 97//83 125//83 123//83
f 97//83 123//83 99//83
f 99//83 123//83 121//83
f 99//83 121//83 147//83
f 147//92 121//92 119//92
f 147//83 119//83 145//83
f 145//92 119//92 133//92
f 145//83 133//83 143//83
f 143//83 133//83 135//83
f 143//83 135//83 141//83
f 141//92 135//92 137//92
f 141//92 137//92 139//92
# Vertices: 166, normals: 214, texture coordinates: 0, faces: 332

